<svg xmlns="http://www.w3.org/2000/svg" xmlns:xlink="http://www.w3.org/1999/xlink" id="Layer_1" x="0px" y="0px" viewBox="0 0 20 20" style="enable-background:new 0 0 20 20;" xml:space="preserve"><style type="text/css">	.st0{fill:#323768;}</style><g>	<path class="st0" d="M10.25,0.36c5.06-0.02,9.37,4.04,9.59,9.15c0.12,2.81-0.83,5.24-2.82,7.23c-1.97,1.97-4.37,2.92-7.15,2.82  c-2.5-0.09-4.65-1.05-6.42-2.83c-1.99-2-2.93-4.44-2.81-7.25C0.86,4.52,5.05,0.34,10.25,0.36z M18.67,10.05  c0-4.68-3.76-8.47-8.37-8.48C5.22,1.55,1.8,5.81,1.83,9.92c0.03,5.1,4.21,8.45,8.35,8.45C15.25,18.38,18.78,14.01,18.67,10.05z"></path>	<path class="st0" d="M7.63,8.74c0.57,1.95,1.85,3.2,3.77,3.83c0.05-0.12,0.1-0.23,0.15-0.35c0.2-0.41,0.47-0.75,0.85-1.01  c0.05-0.04,0.1-0.05,0.16-0.01c0.99,0.55,2.04,0.95,3.15,1.2c0.04,0.01,0.09,0.04,0.1,0.07c0.29,1.16-0.28,2.36-1.37,2.79  c-0.36,0.14-0.75,0.17-1.12,0.13c-1.18-0.13-2.33-0.41-3.41-0.94c-2.42-1.17-3.96-3.08-4.71-5.64C5,8.13,4.87,7.45,4.81,6.75  c-0.1-1.21,0.76-2.31,1.97-2.49C7.1,4.2,7.42,4.22,7.73,4.29c0.06,0.01,0.09,0.04,0.1,0.1c0.2,1.15,0.62,2.21,1.18,3.23  c0.03,0.06,0.02,0.09-0.01,0.14C8.77,8.08,8.47,8.3,8.14,8.49C7.98,8.58,7.81,8.65,7.63,8.74z"></path></g></svg>