<svg xmlns="http://www.w3.org/2000/svg" xmlns:xlink="http://www.w3.org/1999/xlink" id="Layer_1" x="0px" y="0px" viewBox="0 0 100 100" style="enable-background:new 0 0 100 100;" xml:space="preserve"><style type="text/css">	.st0{fill:#FFFFFF;}	.st1{fill:#CE3932;}	.st2{fill:#231F20;}	.st3{fill:#323768;}	.st4{fill:#492413;}	.st5{fill:#00291B;}	.st6{fill:#304193;}</style><g>	<g>		<circle class="st0" cx="49.54" cy="50.43" r="49.46"></circle>	</g>	<g>		<circle class="st1" cx="49.57" cy="29.42" r="6.15"></circle>		<polygon class="st1" points="45.1,33.63 17.35,52.26 17.31,50.49 44.48,32.86 17.82,45.23 18,43.64 44.09,32.21 19.35,39.04    19.99,37.37 43.71,31.27 22.26,33.18 23.34,31.64 43.46,30.08 43.43,29.42 26.32,28.07 27.63,26.67 43.43,28.57 43.48,28.58    43.62,27.86 32.15,23.23 33.53,22.33 44.1,26.62 44.34,26.19 38.06,20.24 39.52,19.7 45.1,25.06 45.17,25.13 46.13,24.33    42.86,18.85 44.42,18.59 47.3,23.7 48.7,23.33 48.79,18.2 49.99,18.21 49.81,23.28 51.78,23.68 54.14,18.5 55.44,18.72    52.9,24.25 53.88,25.03 59.36,19.67 60.78,20.16 54.55,25.81 55.09,26.7 65.28,22.26 66.87,23.08 55.72,28.47 56.1,28.65    71.53,26.74 72.59,27.78 55.72,30.03 75.86,31.71 76.74,32.98 55.46,31.14 79.26,37.68 79.74,38.86 55.07,32.16 81.21,43.91    81.5,45.5 54.47,33.1 81.81,50.96 81.77,52.36 53.04,34.45   "></polygon>		<path class="st2" d="M49.57,35.65c-3.44,0-6.23-2.8-6.23-6.23c0-3.44,2.8-6.23,6.23-6.23c3.44,0,6.23,2.8,6.23,6.23   C55.8,32.85,53.01,35.65,49.57,35.65z M49.57,23.35c-3.34,0-6.06,2.72-6.06,6.06s2.72,6.06,6.06,6.06c3.34,0,6.06-2.72,6.06-6.06   S52.92,23.35,49.57,23.35z"></path>	</g>	<g>		<polygon class="st3" points="60.54,80.88 38.72,80.88 38.72,78.26 66.06,78.26   "></polygon>		<polygon class="st3" points="67.32,77.44 38.72,77.44 38.72,74.82 70.75,74.82   "></polygon>		<polygon class="st3" points="71.62,73.94 38.72,73.94 38.72,71.33 74.08,71.33   "></polygon>		<polygon class="st3" points="74.95,70.45 39.15,70.45 39.15,67.84 76.82,67.84   "></polygon>		<polygon class="st3" points="77.25,67 39.46,67 39.46,64.39 78.71,64.39   "></polygon>		<polygon class="st3" points="79.13,63.62 39.56,63.62 39.56,61 79.94,61   "></polygon>		<polygon class="st3" points="41.9,81.64 57.18,81.64 54.74,82.38 48.08,82.74 43.64,82.19   "></polygon>	</g>	<g>		<polygon class="st0" points="48.57,32.19 46.11,35.57 50.58,36.47 50.07,32.19 48.9,31.59   "></polygon>		<path class="st4" d="M49.44,32.28c0,0-0.9,1.56-0.87,2.49c0.03,0.93,0.3,2.35,2.19,1.82c0,0-3.91,1.03-4.74,2.09   s-1.98,2.27-1.98,2.27l-3.92,3.08c0,0-3.12,2.14-3.71,3.56c0,0-5.53-0.17-7.39,3.02c0,0-2.62,2.45,2.58,2.95l2.79,0.36   c0,0-8.39,0.3-9.22,0l-0.4-0.11l-2.89,0.96l18.29,0.19c0,0-4-2.65,1.7-4.26c0,0,4.02-1.26,4.13-1.26s2.34-0.44-0.71-2.5   c-3.05-2.05,7.64-4.02,7.64-4.02s4.73-1.52,5.04-1.72c0.31-0.2-2.08-3.89-4.38-4.49c0,0-2.27-4.45-2.81-4.64"></path>		<path class="st4" d="M58.41,41.55l-9.17,3.53c0,0-2.54,1.19-1.04,1.92c0,0,1.17,0.88,1.37,1.13c0.2,0.24,0.91,1.35-0.77,2.14   c0,0-1.35,1.07-4.51,1.8c0,0-1.35,1.08-0.22,1.93c1.13,0.85,1.3,0.95,1.3,0.95h6.16h29.88l0.12-0.46l-10.26-2.35l-2.39,0.1   l-4.64-0.35L58.41,41.55z"></path>		<path class="st2" d="M49.03,30.59c0,0-2.22,3.98-2.42,4.18s-1.69,0.8-1.69,0.8s-2.15,3.74-2.92,6.16c0,0-6.96,1.99-9.74,6   l-3.91,0.33l-3.88,4.08c0,0-4.84,2.12-6.36,2.52l-0.5,0.25l0.23,0.31l0.05,0.25l5.48-0.96l1.49-0.75c0,0,4.08-3.99,5.58-4.76   l4.18-0.56c0,0,0.4-0.33,0.23-0.73c-0.17-0.4,0.96-2.22,5.25-3.68c0,0,3.21-1.67,3.26-1.72s1.71-3.51,1.92-4.29s0.32-2,1.53-2.54   c0,0,1.17-0.78,1.87-2.45l0.46-0.93c0,0,1.45,0.87,1.93,2.29c0,0,0.3-1.54-0.31-2.32c0,0-0.6-0.38-0.65-0.47   c-0.04-0.09-0.34-0.36-0.56-0.46C49.35,31.05,49.03,30.59,49.03,30.59z"></path>	</g>	<path class="st2" d="M52.29,57.15c0,0-17.13,10.61-11.51,24.19c0,0-18.74-2.91-23.23-27.08h42.67  C60.22,54.26,53.43,55.21,52.29,57.15z"></path>	<path class="st5" d="M60.22,54.26c0,0-27.58,7.57-24,25.48c0,0-15.3-4.65-18.68-25.48H60.22z"></path>	<path class="st0" d="M44.41,54.26c0,0-24.25,11.24-10.01,24.49c0,0-8.2-3.28-13.39-13.57c0,0,1.05-7.06,18.37-10.93H44.41z"></path>	<g>		<path class="st0" d="M46.58,55.54l0.49,1.45c0,0,0.49-1.35,0.75-1.39c0,0-0.41-0.02-0.56,0.57l-0.06-1.1l-0.17,1.16   C47.04,56.23,46.65,55.64,46.58,55.54z"></path>		<path class="st0" d="M47.91,56.21l0.49,1.45c0,0,0.49-1.35,0.75-1.39c0,0-0.41-0.02-0.56,0.57l-0.06-1.1l-0.17,1.16   C48.37,56.9,47.99,56.31,47.91,56.21z"></path>		<path class="st0" d="M32.38,71.11l1.54,4.53c0,0,1.54-4.22,2.35-4.36c0,0-1.29-0.06-1.76,1.79l-0.18-3.44l-0.52,3.64   C33.81,73.26,32.6,71.42,32.38,71.11z"></path>		<path class="st0" d="M34.32,75.98l1.2,3.53c0,0,1.2-3.29,1.83-3.4c0,0-1-0.04-1.37,1.4l-0.14-2.68l-0.4,2.84   C35.44,77.66,34.5,76.22,34.32,75.98z"></path>		<path class="st0" d="M35.27,67.67l1.2,3.53c0,0,1.2-3.29,1.83-3.4c0,0-1-0.04-1.37,1.4l-0.14-2.68l-0.4,2.84   C36.38,69.35,35.44,67.91,35.27,67.67z"></path>		<path class="st0" d="M30.86,67.67l1.2,3.53c0,0,1.2-3.29,1.83-3.4c0,0-1-0.04-1.37,1.4l-0.14-2.68l-0.4,2.84   C31.97,69.35,31.04,67.91,30.86,67.67z"></path>		<path class="st0" d="M33.23,64.27l1.2,3.53c0,0,1.2-3.29,1.83-3.4c0,0-1-0.04-1.37,1.4l-0.14-2.68l-0.4,2.84   C34.35,65.95,33.41,64.51,33.23,64.27z"></path>		<path class="st0" d="M36.91,63.47l1.2,3.53c0,0,1.2-3.29,1.83-3.4c0,0-1-0.04-1.37,1.4l-0.14-2.68l-0.4,2.84   C38.02,65.15,37.08,63.71,36.91,63.47z"></path>		<path class="st0" d="M35.27,60.48l1.13,3.33c0,0,1.13-3.11,1.73-3.21c0,0-0.95-0.04-1.3,1.32l-0.13-2.53l-0.38,2.67   C36.32,62.06,35.43,60.7,35.27,60.48z"></path>		<path class="st0" d="M38.13,59.63l1.13,3.33c0,0,1.13-3.11,1.73-3.21c0,0-0.95-0.04-1.3,1.32l-0.13-2.53l-0.38,2.67   C39.18,61.21,38.29,59.86,38.13,59.63z"></path>		<path class="st0" d="M40.5,60.83l1.13,3.33c0,0,1.13-3.11,1.73-3.21c0,0-0.95-0.04-1.3,1.32l-0.13-2.53l-0.38,2.67   C41.54,62.41,40.66,61.05,40.5,60.83z"></path>		<path class="st0" d="M43.33,58.72l1.05,3.09c0,0,1.05-2.88,1.6-2.98c0,0-0.88-0.04-1.2,1.22l-0.12-2.35l-0.35,2.48   C44.3,60.19,43.48,58.93,43.33,58.72z"></path>		<path class="st0" d="M46.44,58.05l0.64,1.9c0,0,0.64-1.77,0.98-1.83c0,0-0.54-0.02-0.74,0.75l-0.08-1.44l-0.22,1.52   C47.04,58.95,46.53,58.18,46.44,58.05z"></path>		<path class="st0" d="M44.65,56.46l0.64,1.9c0,0,0.64-1.77,0.98-1.83c0,0-0.54-0.02-0.74,0.75l-0.08-1.44l-0.22,1.52   C45.25,57.37,44.75,56.59,44.65,56.46z"></path>		<path class="st0" d="M43.25,55.6l0.64,1.9c0,0,0.64-1.77,0.98-1.83c0,0-0.54-0.02-0.74,0.75l-0.08-1.44l-0.22,1.52   C43.85,56.51,43.35,55.73,43.25,55.6z"></path>		<path class="st0" d="M40.6,56.86l1.05,3.09c0,0,1.05-2.88,1.6-2.98c0,0-0.88-0.04-1.2,1.22l-0.12-2.35l-0.35,2.48   C41.57,58.33,40.75,57.07,40.6,56.86z"></path>		<path class="st0" d="M30.47,73.97l0.99,2.93c0,0,0.99-2.73,1.52-2.82c0,0-0.83-0.04-1.14,1.16l-0.12-2.22l-0.33,2.35   C31.39,75.36,30.62,74.17,30.47,73.97z"></path>		<path class="st0" d="M45.2,54.5l0.49,1.45c0,0,0.49-1.35,0.75-1.39c0,0-0.41-0.02-0.56,0.57l-0.06-1.1l-0.17,1.16   C45.65,55.18,45.27,54.59,45.2,54.5z"></path>		<path class="st0" d="M49.32,55.46l0.49,1.45c0,0,0.49-1.35,0.75-1.39c0,0-0.41-0.02-0.56,0.57l-0.06-1.1l-0.17,1.16   C49.77,56.14,49.39,55.55,49.32,55.46z"></path>	</g>	<g>		<path class="st0" d="M20.81,62.58l0.71,2.08c0,0,0.71-1.94,1.08-2c0,0-0.59-0.03-0.81,0.82L21.7,61.9l-0.24,1.67   C21.46,63.57,20.91,62.72,20.81,62.58z"></path>		<path class="st0" d="M19.55,60.42l0.71,2.08c0,0,0.71-1.94,1.08-2c0,0-0.59-0.03-0.81,0.82l-0.08-1.58L20.2,61.4   C20.2,61.4,19.65,60.56,19.55,60.42z"></path>		<path class="st0" d="M18.88,57.66l0.71,2.08c0,0,0.71-1.94,1.08-2c0,0-0.59-0.03-0.81,0.82l-0.08-1.58l-0.24,1.67   C19.53,58.65,18.98,57.8,18.88,57.66z"></path>		<path class="st0" d="M18.44,55.03l0.71,2.08c0,0,0.71-1.94,1.08-2c0,0-0.59-0.03-0.81,0.82l-0.08-1.58l-0.24,1.67   C19.09,56.02,18.54,55.17,18.44,55.03z"></path>		<path class="st0" d="M20.81,56.05l0.71,2.08c0,0,0.71-1.94,1.08-2c0,0-0.59-0.03-0.81,0.82l-0.08-1.58l-0.24,1.67   C21.46,57.04,20.91,56.19,20.81,56.05z"></path>		<path class="st0" d="M22.71,54.86l0.61,1.79c0,0,0.61-1.67,0.93-1.72c0,0-0.51-0.02-0.7,0.71l-0.07-1.36l-0.2,1.44   C23.28,55.71,22.8,54.98,22.71,54.86z"></path>		<path class="st0" d="M25.15,54.66l0.41,1.22c0,0,0.41-1.13,0.63-1.17c0,0-0.35-0.02-0.47,0.48l-0.05-0.92l-0.14,0.98   C25.54,55.24,25.21,54.74,25.15,54.66z"></path>		<path class="st0" d="M21.23,58.51l0.71,2.08c0,0,0.71-1.94,1.08-2c0,0-0.59-0.03-0.81,0.82l-0.08-1.58l-0.24,1.67   C21.88,59.49,21.33,58.65,21.23,58.51z"></path>		<path class="st0" d="M23.19,56.8l0.71,2.08c0,0,0.71-1.94,1.08-2c0,0-0.59-0.03-0.81,0.82l-0.08-1.58l-0.24,1.67   C23.84,57.79,23.29,56.94,23.19,56.8z"></path>		<path class="st0" d="M25.15,55.75l0.71,2.08c0,0,0.71-1.94,1.08-2c0,0-0.59-0.03-0.81,0.82l-0.08-1.58l-0.24,1.67   C25.81,56.74,25.26,55.89,25.15,55.75z"></path>		<path class="st0" d="M27.42,54.47l0.71,2.08c0,0,0.71-1.94,1.08-2c0,0-0.59-0.03-0.81,0.82l-0.08-1.58l-0.24,1.67   C28.07,55.46,27.52,54.61,27.42,54.47z"></path>		<path class="st0" d="M29.7,54.27l0.5,1.47c0,0,0.5-1.37,0.76-1.41c0,0-0.42-0.02-0.57,0.58l-0.06-1.11l-0.17,1.18   C30.16,54.96,29.77,54.37,29.7,54.27z"></path>		<path class="st0" d="M22.59,60.42l0.71,2.08c0,0,0.71-1.94,1.08-2c0,0-0.59-0.03-0.81,0.82l-0.08-1.58l-0.24,1.67   C23.24,61.4,22.69,60.56,22.59,60.42z"></path>		<path class="st0" d="M24.54,58.69l0.71,2.08c0,0,0.71-1.94,1.08-2c0,0-0.59-0.03-0.81,0.82l-0.08-1.58l-0.24,1.67   C25.19,59.67,24.64,58.83,24.54,58.69z"></path>		<path class="st0" d="M26.53,57.43l0.71,2.08c0,0,0.71-1.94,1.08-2c0,0-0.59-0.03-0.81,0.82l-0.08-1.58l-0.24,1.67   C27.18,58.41,26.63,57.57,26.53,57.43z"></path>		<path class="st0" d="M28.79,56.51l0.6,1.76c0,0,0.6-1.64,0.91-1.69c0,0-0.5-0.02-0.68,0.69l-0.07-1.34l-0.2,1.41   C29.34,57.35,28.87,56.63,28.79,56.51z"></path>		<path class="st0" d="M30.73,55.74l0.6,1.76c0,0,0.6-1.64,0.91-1.69c0,0-0.5-0.02-0.68,0.69l-0.07-1.34l-0.2,1.41   C31.28,56.58,30.82,55.86,30.73,55.74z"></path>		<path class="st0" d="M32.88,54.87l0.6,1.76c0,0,0.6-1.64,0.91-1.69c0,0-0.5-0.02-0.68,0.69l-0.07-1.34l-0.2,1.41   C33.44,55.71,32.97,54.99,32.88,54.87z"></path>		<path class="st0" d="M35.13,54.65l0.43,1.26c0,0,0.43-1.17,0.65-1.21c0,0-0.36-0.02-0.49,0.5l-0.05-0.95l-0.14,1.01   C35.53,55.24,35.2,54.73,35.13,54.65z"></path>	</g>	<g>		<path class="st2" d="M50.72,54.23l1.97-2.51h0.91l1.37-2.29h8.42v-1.02h0.6v1.04l0.24,0.57h1.37V46.5h0.57v3.56l1.61,0.31   l0.71,2.03h0.99v1.44l4.46,0.4l0.2-1.29l7.38,1.5c0,0-0.29,5.14-2.39,9.03H51.08c0,0-1.17-4.82-4.39-6.94h3.07l2.09-1.55H45.3   l-0.89-0.72L50.72,54.23z"></path>		<polygon class="st0" points="53.45,51.7 52.29,53.35 58.09,53.35 58.79,51.7   "></polygon>		<polygon class="st0" points="52.56,54.35 52.29,56.66 59.17,56.66 59.43,54.35   "></polygon>		<polygon class="st0" points="55.37,49.76 54.21,51.42 60.01,51.42 60.71,49.76   "></polygon>		<polygon class="st0" points="76.52,55.35 59.54,54.05 52.56,54.05 52.56,53.71 59.56,53.71 76.55,55.02   "></polygon>		<path class="st0" d="M74.08,54.24l0.12-0.94l7.33,1.37c0,0-0.4,0.96-0.55,1.11c-0.15,0.15-4.09-0.43-4.09-0.43l0.12-0.8   L74.08,54.24z"></path>		<path class="st0" d="M73.39,55.62v2l7.22,0.3c0,0,0.4-1.57,0.23-1.77C80.68,55.95,73.39,55.62,73.39,55.62z"></path>		<path class="st0" d="M47.45,56.66c0,0,2.9,2.73,3.63,5.95c0,0,0.36-1.51-1.51-4.61c0,0,3.58,1.85,9.85,2.36s18.3,1.08,19.82,0.96   c0,0,0.86-0.21,1.08-2.87C80.33,58.45,48.71,57.19,47.45,56.66z"></path>		<path class="st2" d="M60.22,60.48c-0.55,0-1-0.45-1-1s0.45-1,1-1c0.55,0,1,0.45,1,1S60.77,60.48,60.22,60.48z M60.22,58.9   c-0.32,0-0.58,0.26-0.58,0.58c0,0.32,0.26,0.58,0.58,0.58c0.32,0,0.58-0.26,0.58-0.58C60.8,59.16,60.54,58.9,60.22,58.9z"></path>	</g>	<path class="st6" d="M49.54,82.89c-4.38,0-8.63-0.86-12.64-2.55c-3.87-1.64-7.34-3.98-10.32-6.96s-5.32-6.45-6.96-10.32  c-1.69-4-2.55-8.25-2.55-12.64s0.86-8.63,2.55-12.64c1.64-3.87,3.98-7.34,6.96-10.32c2.98-2.98,6.45-5.32,10.32-6.96  c4-1.69,8.25-2.55,12.64-2.55s8.63,0.86,12.64,2.55c3.87,1.64,7.34,3.98,10.32,6.96c2.98,2.98,5.32,6.45,6.96,10.32  c1.69,4,2.55,8.25,2.55,12.64s-0.86,8.63-2.55,12.64c-1.64,3.87-3.98,7.34-6.96,10.32c-2.98,2.98-6.45,5.32-10.32,6.96  C58.18,82.03,53.93,82.89,49.54,82.89z M49.54,18.3c-17.72,0-32.13,14.41-32.13,32.13s14.41,32.13,32.13,32.13  c17.72,0,32.13-14.41,32.13-32.13S67.26,18.3,49.54,18.3z"></path>	<g>		<circle class="st5" cx="24.5" cy="26.02" r="1.35"></circle>		<circle class="st5" cx="30.64" cy="21.12" r="1.35"></circle>		<circle class="st5" cx="37.8" cy="17.54" r="1.35"></circle>		<circle class="st5" cx="45.44" cy="15.73" r="1.35"></circle>		<circle class="st5" cx="53.31" cy="15.73" r="1.35"></circle>		<circle class="st5" cx="68.07" cy="21.12" r="1.35"></circle>		<circle class="st5" cx="74.12" cy="25.8" r="1.35"></circle>		<circle class="st5" cx="79.11" cy="31.94" r="1.35"></circle>		<circle class="st5" cx="82.43" cy="39.06" r="1.35"></circle>		<circle class="st5" cx="84.22" cy="46.71" r="1.35"></circle>		<circle class="st5" cx="84.22" cy="54.37" r="1.35"></circle>		<circle class="st5" cx="82.46" cy="62.02" r="1.35"></circle>		<circle class="st5" cx="79.01" cy="69.09" r="1.35"></circle>		<circle class="st5" cx="74.2" cy="75.01" r="1.35"></circle>		<circle class="st5" cx="67.97" cy="79.96" r="1.35"></circle>		<circle class="st5" cx="60.81" cy="83.5" r="1.35"></circle>		<circle class="st5" cx="53.19" cy="85.27" r="1.35"></circle>		<circle class="st5" cx="45.37" cy="85.27" r="1.35"></circle>		<circle class="st5" cx="37.64" cy="83.48" r="1.35"></circle>		<circle class="st5" cx="30.61" cy="80.21" r="1.35"></circle>		<circle class="st5" cx="24.4" cy="75.35" r="1.35"></circle>		<circle class="st5" cx="19.5" cy="69.18" r="1.35"></circle>		<circle class="st5" cx="16.19" cy="62.26" r="1.35"></circle>		<circle class="st5" cx="14.43" cy="54.73" r="1.35"></circle>		<circle class="st5" cx="14.43" cy="46.85" r="1.35"></circle>		<circle class="st5" cx="16.25" cy="39.19" r="1.35"></circle>		<circle class="st5" cx="19.66" cy="32.26" r="1.35"></circle>		<circle class="st5" cx="60.91" cy="17.54" r="1.35"></circle>	</g>	<polygon class="st2" points="11.66,62.44 9.69,61.43 7.75,62.48 8.1,60.29 6.51,58.76 8.69,58.43 9.65,56.44 10.65,58.41   12.84,58.71 11.27,60.27  "></polygon>	<polygon class="st2" points="91.65,62.44 89.69,61.43 87.74,62.48 88.09,60.29 86.5,58.76 88.68,58.43 89.64,56.44 90.64,58.41   92.83,58.71 91.26,60.27  "></polygon>	<g>		<g>			<path class="st3" d="M52.71,99.85c-1,0-2.14-0.31-3.32-1.24l-0.01-0.01c-0.01-0.01-0.83-0.74-2.08-1.16    c-1.66-0.55-3.25-0.31-4.73,0.72l-0.02,0.01c-0.04,0.02-1.06,0.54-2.43,0.62c-1.28,0.08-3.1-0.23-4.56-2.13l-0.01-0.02    l-0.01-0.02c0-0.01-0.47-0.99-1.5-1.8c-1.37-1.09-3.06-1.4-5-0.92c-0.05,0.01-1.21,0.29-2.55,0.01    c-1.26-0.26-2.91-1.07-3.65-3.45c0-0.01-0.38-1.18-1.24-2.26c-1.13-1.42-2.54-2.03-4.18-1.8l-0.02,0l-0.02,0    c-0.05,0-1.26-0.12-2.49-0.83c-1.15-0.66-2.52-1.97-2.55-4.48l0-0.01l0-0.01c0-0.01,0.04-1.13-0.41-2.35    c-0.6-1.62-1.75-2.67-3.41-3.1l-0.01,0c-0.05-0.02-1.23-0.4-2.24-1.37c-0.94-0.9-1.91-2.5-1.13-4.98    c0.04-0.16,1.02-4.31-2.06-6.42c-0.17-0.09-1.57-0.86-2.12-2.55c-0.44-1.35-0.2-2.9,0.7-4.6l0.01-0.01c0.02-0.04,2.4-4-0.21-6.64    l-0.01-0.01c-0.03-0.04-0.77-0.92-1.05-2.29c-0.26-1.27-0.17-3.2,1.77-5.19l0.02-0.02l0.02-0.01c0.01-0.01,0.86-0.55,1.49-1.61    c0.85-1.42,0.93-3.04,0.25-4.82c-0.02-0.05-0.4-1.15-0.25-2.53c0.14-1.28,0.79-3.04,3.08-4.15l0.01-0.01c0.01,0,1-0.42,1.94-1.38    c1.25-1.27,1.84-2.83,1.74-4.65c-0.01-0.1-0.1-1.21,0.41-2.45c0.48-1.17,1.61-2.68,4.25-3.18l0.03,0c0.01,0,0.99-0.04,2.09-0.6    c1.46-0.74,2.44-2,2.91-3.74c0.02-0.13,0.25-1.32,1.1-2.42c0.82-1.06,2.39-2.24,5.22-1.78l0.02,0c0.01,0,0.95,0.22,2.15-0.03    c1.61-0.34,2.91-1.32,3.87-2.91c0.05-0.1,0.61-1.1,1.72-1.87c1.07-0.73,2.87-1.36,5.37-0.22l0.03,0.02    c0.01,0.01,0.81,0.53,2.02,0.68c1.63,0.2,3.2-0.32,4.67-1.56l0.14-0.12l0.14,0.12c0.01,0.01,0.67,0.58,1.82,0.83    c1.53,0.33,3.25-0.06,4.97-1.12c2.33-1.44,4.15-1.09,5.27-0.55c1.21,0.59,1.85,1.51,1.88,1.55l0.01,0.02l0.01,0.02    c0,0.01,0.39,0.89,1.37,1.57c1.31,0.92,3.01,1.07,5.06,0.46c1.67-0.5,3.13-0.42,4.33,0.24c1.73,0.95,2.3,2.75,2.35,2.91    c0.03,0.08,0.41,1.09,1.24,2.02c1.14,1.28,2.54,1.82,4.18,1.6c1.29-0.17,2.42,0.13,3.38,0.89c1.64,1.3,2.2,3.52,2.24,3.87    c0,0.04,0.01,0.09,0.01,0.17c0.15,3.89,2.37,5.01,4.2,5.27c1.26,0.17,2.24,0.72,2.9,1.62c1.37,1.85,0.95,4.52,0.93,4.63l0,0.02    c0,0.01-0.31,1.24-0.14,2.61c0.23,1.8,1.13,2.98,2.69,3.53c0.99,0.35,1.7,0.98,2.11,1.87c1,2.2-0.2,5.24-0.25,5.36l-0.01,0.02    l-0.01,0.02c-0.01,0.01-0.6,0.91-0.81,2.19c-0.29,1.69,0.19,3.2,1.42,4.5c1.67,1.76,1.52,3.64,1.1,4.91    c-0.45,1.36-1.27,2.29-1.31,2.33l-0.03,0.02c-0.01,0.01-0.85,0.7-1.42,1.86c-0.76,1.54-0.7,3.13,0.18,4.73    c1.19,2.18,0.48,3.97-0.32,5.09c-0.86,1.19-1.97,1.87-2.02,1.9l-0.02,0.01l-0.02,0.01c-0.01,0-0.9,0.3-1.7,1.17    c-1.06,1.15-1.46,2.71-1.18,4.63c0.37,2.59-0.84,4.09-1.92,4.89c-1.16,0.86-2.39,1.1-2.44,1.11c-0.02,0-1.12,0.18-2.25,0.87    c-1.49,0.92-2.3,2.26-2.43,4c-0.13,1.87-1.19,3.27-3.05,4.03c-1.38,0.57-2.7,0.58-2.76,0.58l-0.02,0l-0.02,0    c-0.01,0-1.08-0.19-2.35,0.13c-1.69,0.43-2.93,1.51-3.68,3.21c-1.02,2.3-2.84,2.9-4.18,2.99c-1.44,0.1-2.63-0.33-2.68-0.35    l-0.02-0.01c-0.01,0-1-0.5-2.28-0.56c-1.7-0.08-3.09,0.62-4.15,2.08l-0.02,0.02c-0.04,0.04-0.89,0.89-2.22,1.39    C54.02,99.7,53.4,99.85,52.71,99.85z M49.65,98.28c1.48,1.16,3.06,1.45,4.72,0.84c1.17-0.43,1.97-1.19,2.07-1.28    c1.43-1.96,3.24-2.3,4.52-2.24c1.3,0.06,2.29,0.54,2.42,0.6c0.12,0.04,1.22,0.41,2.5,0.32c1.78-0.13,3.06-1.05,3.81-2.74    c1.01-2.29,2.72-3.14,3.98-3.45c1.27-0.32,2.32-0.17,2.49-0.14c0.16,0,1.37-0.05,2.59-0.56c1.72-0.71,2.65-1.94,2.77-3.66    c0.17-2.35,1.53-3.66,2.64-4.34c1.19-0.73,2.34-0.92,2.38-0.92c0,0,1.19-0.24,2.28-1.04c1.43-1.06,2.02-2.57,1.74-4.48    c-0.37-2.57,0.51-4.14,1.31-5c0.8-0.86,1.68-1.2,1.84-1.26c0.14-0.09,1.14-0.73,1.88-1.78c1.06-1.48,1.15-3.04,0.29-4.63    c-1.18-2.17-0.75-3.99-0.18-5.14c0.58-1.17,1.39-1.87,1.52-1.98c0.09-0.11,0.82-0.98,1.21-2.18c0.55-1.68,0.21-3.19-1.01-4.47    c-1.66-1.74-1.75-3.62-1.53-4.88c0.22-1.27,0.77-2.17,0.86-2.32c0.1-0.25,1.14-3.06,0.25-5.01c-0.35-0.78-0.98-1.33-1.86-1.64    c-1.7-0.6-2.73-1.94-2.97-3.89c-0.17-1.39,0.11-2.61,0.15-2.74c0.02-0.16,0.37-2.65-0.86-4.3c-0.6-0.81-1.48-1.3-2.62-1.45    c-1.85-0.26-3.17-1.17-3.92-2.72c-0.59-1.22-0.63-2.48-0.65-2.95c0-0.07,0-0.12-0.01-0.15c-0.03-0.27-0.56-2.37-2.08-3.58    c-0.86-0.69-1.89-0.96-3.06-0.8c-1.76,0.23-3.34-0.38-4.56-1.75c-0.91-1.03-1.3-2.11-1.32-2.16l0-0.01    c0-0.02-0.53-1.78-2.15-2.66c-1.1-0.6-2.44-0.67-4-0.2c-2.72,0.81-4.46,0.16-5.44-0.53c-0.99-0.7-1.42-1.56-1.49-1.72    c-0.09-0.12-0.69-0.9-1.72-1.4c-1.48-0.72-3.11-0.54-4.84,0.54c-2.31,1.43-4.16,1.42-5.31,1.17c-0.94-0.21-1.57-0.61-1.84-0.81    c-1.91,1.54-3.7,1.7-4.88,1.55c-1.23-0.16-2.05-0.66-2.17-0.74c-1.85-0.84-3.51-0.78-4.92,0.18c-1.07,0.72-1.6,1.72-1.6,1.73    L32.86,5.5c-1.28,2.13-2.97,2.87-4.17,3.12c-1.25,0.26-2.2,0.05-2.31,0.03c-2.09-0.34-3.71,0.2-4.8,1.61    c-0.82,1.06-1.03,2.24-1.03,2.26l0,0.02c-0.62,2.34-2.06,3.48-3.15,4.03c-1.11,0.56-2.09,0.63-2.23,0.64    c-1.96,0.38-3.27,1.36-3.91,2.91c-0.48,1.17-0.39,2.25-0.38,2.26l0,0.01c0.13,2.43-0.95,4.05-1.88,4.99    c-0.97,0.98-1.97,1.41-2.06,1.45c-1.69,0.82-2.64,2.1-2.84,3.79c-0.15,1.28,0.22,2.34,0.22,2.35c0.91,2.39,0.34,4.15-0.3,5.2    c-0.64,1.06-1.45,1.63-1.6,1.72c-1.44,1.48-1.99,3.09-1.65,4.77c0.25,1.22,0.9,2.04,0.96,2.12c1.17,1.19,1.59,2.81,1.2,4.68    c-0.28,1.35-0.88,2.36-0.94,2.46c-0.84,1.59-1.06,3.02-0.67,4.26c0.51,1.59,1.91,2.3,1.92,2.31l0.03,0.01    c1.4,0.96,2.23,2.46,2.4,4.33c0.13,1.4-0.15,2.51-0.17,2.56l0,0.01c-0.57,1.82-0.23,3.35,1.01,4.55c0.91,0.88,2,1.25,2.08,1.28    c2.25,0.59,3.25,2.16,3.7,3.37c0.47,1.27,0.44,2.4,0.44,2.5c0.02,1.84,0.8,3.22,2.32,4.1c1.06,0.61,2.14,0.76,2.31,0.78    c1.77-0.23,3.34,0.45,4.55,1.97c0.91,1.14,1.29,2.34,1.3,2.39c0.55,1.75,1.66,2.81,3.32,3.16c1.26,0.26,2.37,0,2.38-0.01    c2.59-0.64,4.36,0.2,5.38,1.01c1.03,0.82,1.52,1.76,1.6,1.92c1.07,1.39,2.48,2.04,4.17,1.95c1.21-0.07,2.16-0.52,2.27-0.57    c2-1.38,3.88-1.18,5.11-0.76C48.73,97.48,49.57,98.21,49.65,98.28z"></path>			<path class="st3" d="M52.71,99.89c-1.17,0-2.3-0.42-3.35-1.25l-0.01-0.01c-0.01-0.01-0.82-0.74-2.06-1.15    c-1.64-0.55-3.22-0.31-4.7,0.72l-0.03,0.02c-0.05,0.02-1.07,0.55-2.45,0.63c-1.29,0.08-3.13-0.23-4.6-2.15l-0.02-0.03l-0.01-0.02    c0-0.01-0.47-0.98-1.49-1.79c-1.36-1.08-3.03-1.39-4.96-0.91c-0.05,0.01-1.21,0.29-2.57,0.01c-1.27-0.26-2.94-1.08-3.69-3.48    c0-0.01-0.38-1.18-1.23-2.24c-1.12-1.41-2.52-2.01-4.14-1.78l-0.03,0l-0.03,0c-0.05,0-1.27-0.12-2.51-0.83    c-1.16-0.66-2.54-1.99-2.57-4.51V81.1c0-0.05,0.04-1.14-0.41-2.34c-0.6-1.61-1.74-2.64-3.38-3.07l-0.01,0    c-0.05-0.02-1.24-0.4-2.26-1.38c-0.95-0.91-1.92-2.52-1.14-5.03C5.1,69.11,6.07,65,3.02,62.9c-0.16-0.08-1.58-0.86-2.14-2.57    c-0.44-1.36-0.21-2.92,0.7-4.63l0.01-0.01c0.02-0.04,2.39-3.97-0.2-6.59l-0.01-0.01c-0.03-0.04-0.78-0.93-1.06-2.31    c-0.27-1.28-0.17-3.22,1.78-5.23l0.03-0.02l0.02-0.01c0.01-0.01,0.85-0.55,1.48-1.6c0.84-1.41,0.92-3.02,0.25-4.79    c-0.02-0.05-0.4-1.16-0.25-2.55c0.14-1.29,0.8-3.07,3.11-4.18l0.01-0.01c0.01,0,0.99-0.42,1.93-1.37    c1.24-1.26,1.83-2.81,1.73-4.62c-0.01-0.12-0.1-1.23,0.41-2.46c0.48-1.18,1.62-2.7,4.28-3.21l0.04,0c0.01,0,0.99-0.04,2.08-0.6    c1.45-0.74,2.43-1.99,2.89-3.71c0.02-0.13,0.25-1.33,1.11-2.44c0.83-1.07,2.41-2.25,5.26-1.79l0.02,0c0.01,0,0.95,0.22,2.14-0.03    c1.6-0.34,2.89-1.31,3.84-2.9c0.06-0.11,0.62-1.11,1.74-1.88c1.08-0.74,2.89-1.37,5.41-0.22l0.03,0.02    c0.01,0.01,0.8,0.53,2.01,0.68c1.62,0.2,3.18-0.32,4.64-1.55l0.17-0.14l0.16,0.15c0.03,0.02,0.66,0.58,1.8,0.82    c1.52,0.33,3.23-0.06,4.94-1.12c2.35-1.45,4.18-1.1,5.31-0.55c1.22,0.59,1.87,1.52,1.9,1.56l0.02,0.03l0.01,0.02    c0,0.01,0.39,0.88,1.35,1.55c1.3,0.91,2.99,1.06,5.02,0.46c1.69-0.5,3.15-0.42,4.36,0.24c1.74,0.95,2.31,2.73,2.37,2.93    c0.04,0.11,0.42,1.09,1.24,2c1.13,1.27,2.52,1.8,4.14,1.59c1.3-0.17,2.44,0.13,3.41,0.9c1.65,1.31,2.22,3.54,2.26,3.9    c0,0.04,0.01,0.1,0.01,0.18c0.15,3.86,2.35,4.97,4.17,5.23c1.27,0.18,2.26,0.73,2.93,1.64c1.37,1.86,0.96,4.55,0.94,4.66l0,0.02    c0,0.01-0.31,1.23-0.14,2.59c0.22,1.78,1.12,2.96,2.66,3.5c1.01,0.35,1.72,0.99,2.13,1.89c1.01,2.22-0.2,5.27-0.25,5.4    l-0.01,0.03l-0.01,0.02c-0.01,0.01-0.59,0.91-0.81,2.17c-0.28,1.68,0.19,3.18,1.41,4.46c1.68,1.77,1.54,3.67,1.11,4.95    c-0.45,1.37-1.28,2.31-1.31,2.35l-0.03,0.03c-0.01,0.01-0.85,0.7-1.42,1.85c-0.75,1.52-0.69,3.1,0.18,4.7    c1.2,2.2,0.48,4.01-0.33,5.14c-0.86,1.2-1.99,1.88-2.03,1.91l-0.03,0.02l-0.02,0.01c-0.01,0-0.89,0.3-1.68,1.15    c-1.05,1.14-1.45,2.69-1.17,4.6c0.38,2.62-0.85,4.12-1.94,4.93c-1.17,0.86-2.41,1.11-2.46,1.12c-0.05,0.01-1.13,0.19-2.23,0.87    c-1.47,0.91-2.28,2.25-2.41,3.97c-0.14,1.89-1.2,3.3-3.07,4.07c-1.39,0.57-2.72,0.59-2.77,0.59l-0.02,0l-0.03,0    c-0.01,0-1.06-0.19-2.33,0.13c-1.68,0.42-2.9,1.5-3.65,3.19c-1.02,2.32-2.86,2.92-4.22,3.01c-1.45,0.1-2.65-0.34-2.7-0.36    l-0.03-0.01c-0.04-0.02-1-0.5-2.26-0.56c-1.68-0.07-3.06,0.62-4.11,2.06l-0.02,0.03c-0.04,0.04-0.9,0.9-2.24,1.4    C53.94,99.78,53.32,99.89,52.71,99.89z M45.6,97.11c0.56,0,1.14,0.1,1.72,0.29c1.26,0.42,2.08,1.16,2.09,1.17l0.01,0.01    c1.03,0.82,2.14,1.23,3.3,1.23c0.6,0,1.21-0.11,1.81-0.34c1.33-0.49,2.17-1.34,2.21-1.38l0.02-0.02    c1.06-1.47,2.47-2.17,4.18-2.09c1.28,0.06,2.25,0.55,2.3,0.57l0.02,0.01c0.05,0.02,1.23,0.45,2.66,0.35    c1.34-0.09,3.14-0.68,4.15-2.97c0.76-1.72,2-2.8,3.7-3.23c1.28-0.32,2.36-0.13,2.37-0.13l0.02,0l0.01,0    c0.06,0,1.37-0.02,2.74-0.58c1.84-0.76,2.89-2.14,3.02-3.99c0.13-1.75,0.95-3.11,2.45-4.03c1.12-0.69,2.21-0.87,2.26-0.88    c0.05-0.01,1.27-0.25,2.43-1.1c1.07-0.79,2.27-2.28,1.9-4.85c-0.28-1.94,0.12-3.51,1.2-4.67c0.81-0.87,1.71-1.17,1.72-1.18    l0.02-0.01l0.02-0.01c0.05-0.03,1.16-0.7,2.01-1.89c0.8-1.11,1.5-2.88,0.32-5.05c-0.88-1.62-0.94-3.22-0.18-4.77    c0.58-1.17,1.43-1.87,1.44-1.87l0.02-0.02c0.03-0.04,0.85-0.97,1.29-2.31c0.41-1.26,0.56-3.13-1.1-4.87    c-1.24-1.3-1.72-2.83-1.43-4.53c0.22-1.29,0.81-2.2,0.82-2.21l0.02-0.03c0.05-0.13,1.24-3.14,0.25-5.33    c-0.4-0.88-1.1-1.5-2.08-1.85c-1.58-0.55-2.49-1.75-2.72-3.57c-0.17-1.38,0.13-2.61,0.14-2.62l0-0.02    c0.02-0.11,0.43-2.76-0.93-4.6c-0.66-0.89-1.63-1.43-2.88-1.61c-1.85-0.26-4.09-1.39-4.24-5.31c0-0.08-0.01-0.14-0.01-0.17    c-0.04-0.35-0.59-2.55-2.22-3.84c-0.95-0.75-2.08-1.05-3.35-0.88c-1.65,0.21-3.07-0.33-4.21-1.62c-0.83-0.93-1.21-1.92-1.25-2.03    c-0.06-0.2-0.62-1.95-2.33-2.88c-1.19-0.65-2.64-0.73-4.3-0.23c-2.06,0.61-3.77,0.46-5.09-0.47C60.91,4,60.51,3.11,60.51,3.1    l-0.02-0.03c-0.03-0.04-0.67-0.95-1.87-1.54c-1.11-0.54-2.91-0.88-5.23,0.55c-1.73,1.07-3.46,1.46-5,1.13    c-1.15-0.25-1.81-0.82-1.84-0.84l-0.11-0.1l-0.11,0.1c-1.48,1.25-3.06,1.78-4.7,1.57c-1.23-0.15-2.04-0.68-2.04-0.69l-0.03-0.02    c-2.48-1.13-4.26-0.51-5.32,0.21c-1.11,0.75-1.65,1.74-1.71,1.85c-0.97,1.61-2.28,2.59-3.9,2.94c-1.21,0.26-2.16,0.04-2.17,0.03    l-0.02,0c-2.8-0.45-4.36,0.71-5.18,1.76c-0.84,1.09-1.07,2.27-1.09,2.4c-0.47,1.76-1.46,3.02-2.93,3.77    c-1.11,0.56-2.1,0.6-2.11,0.6l-0.03,0c-2.62,0.5-3.74,1.99-4.22,3.16c-0.5,1.22-0.42,2.31-0.4,2.43c0.1,1.83-0.49,3.41-1.75,4.68    c-0.95,0.96-1.94,1.38-1.95,1.38l-0.01,0c-2.27,1.1-2.92,2.84-3.06,4.11c-0.15,1.37,0.23,2.47,0.24,2.51    c0.68,1.8,0.6,3.43-0.26,4.86c-0.64,1.07-1.5,1.62-1.51,1.63L2.17,41.6l-0.01,0.01c-1.93,1.98-2.02,3.9-1.76,5.15    c0.28,1.36,1.01,2.24,1.05,2.27l0.01,0.01c2.63,2.66,0.23,6.65,0.21,6.69l-0.01,0.01c-0.89,1.69-1.12,3.23-0.69,4.56    c0.54,1.68,1.94,2.44,2.1,2.52c3.1,2.13,2.12,6.29,2.08,6.47c-0.77,2.46,0.18,4.05,1.12,4.94c1.01,0.96,2.17,1.34,2.22,1.36    l0.01,0c1.67,0.44,2.83,1.49,3.44,3.12c0.45,1.22,0.42,2.32,0.42,2.37l-0.04,0.01l0.04,0c0.03,2.49,1.39,3.79,2.53,4.44    c1.23,0.7,2.42,0.82,2.47,0.82l0.02,0l0.02,0c1.66-0.23,3.07,0.38,4.22,1.82c0.86,1.08,1.24,2.26,1.25,2.27    c0.74,2.36,2.38,3.17,3.62,3.42c1.34,0.28,2.49,0,2.53-0.01c1.95-0.48,3.65-0.17,5.03,0.93c1.04,0.82,1.51,1.81,1.52,1.82    l0.02,0.03c1.44,1.88,3.26,2.19,4.52,2.11c1.37-0.08,2.37-0.6,2.42-0.62l0.02-0.01C43.52,97.45,44.54,97.11,45.6,97.11z     M52.7,99.47c-1.06,0-2.09-0.39-3.07-1.16l0,0c-0.09-0.08-0.92-0.8-2.19-1.23c-1.22-0.41-3.09-0.61-5.08,0.76    c-0.11,0.05-1.06,0.51-2.29,0.58c-1.71,0.1-3.12-0.56-4.21-1.96c-0.09-0.18-0.58-1.11-1.59-1.92c-1.01-0.81-2.76-1.64-5.34-1.01    c-0.01,0-1.14,0.27-2.4,0.01c-1.67-0.35-2.8-1.42-3.35-3.19c-0.02-0.05-0.4-1.24-1.3-2.37c-1.2-1.51-2.76-2.19-4.51-1.95l-0.01,0    l-0.01,0c-0.2-0.02-1.26-0.17-2.32-0.78c-1.53-0.89-2.32-2.28-2.34-4.14c0-0.12,0.03-1.23-0.43-2.49    c-0.45-1.2-1.44-2.76-3.67-3.35c-0.12-0.04-1.19-0.41-2.1-1.29c-1.25-1.21-1.59-2.75-1.02-4.59l0-0.01    c0.01-0.05,0.29-1.15,0.16-2.54c-0.17-1.86-0.99-3.35-2.39-4.3l-0.02-0.01c-0.01-0.01-1.42-0.72-1.94-2.33    c-0.4-1.24-0.18-2.69,0.67-4.29c0.07-0.11,0.66-1.11,0.94-2.45C3.28,51.6,2.86,50,1.7,48.82c-0.08-0.09-0.72-0.92-0.97-2.14    c-0.35-1.7,0.21-3.32,1.66-4.81l0.01-0.01c0.15-0.1,0.96-0.66,1.59-1.71c0.63-1.05,1.2-2.8,0.29-5.17c0-0.01-0.37-1.08-0.22-2.37    c0.2-1.71,1.16-3,2.86-3.83C7.02,28.73,8,28.3,8.96,27.33c0.92-0.93,1.99-2.54,1.86-4.95l0-0.01c0-0.04-0.1-1.12,0.39-2.28    c0.65-1.57,1.97-2.55,3.95-2.93c0.18-0.01,1.13-0.08,2.22-0.63c1.09-0.55,2.51-1.68,3.13-4l0-0.02c0-0.01,0.21-1.21,1.04-2.27    c1.1-1.42,2.73-1.96,4.84-1.62c0.11,0.02,1.06,0.23,2.3-0.03c1.19-0.25,2.87-0.99,4.14-3.1l0.01-0.01c0-0.01,0.54-1.01,1.62-1.74    c1.43-0.97,3.1-1.03,4.96-0.18c0.15,0.1,0.95,0.58,2.16,0.73c1.16,0.15,2.95,0,4.85-1.54l0.03-0.02l0.03,0.02    c0.29,0.21,0.9,0.6,1.83,0.8c1.14,0.25,2.98,0.26,5.28-1.17c1.74-1.08,3.39-1.26,4.88-0.54c1.05,0.51,1.67,1.32,1.74,1.42l0,0.01    c0.07,0.16,0.49,1.01,1.47,1.7c0.97,0.69,2.7,1.34,5.41,0.53c1.57-0.47,2.93-0.4,4.03,0.2c1.64,0.89,2.16,2.67,2.17,2.69l0,0.01    c0.02,0.04,0.4,1.12,1.31,2.14c1.21,1.36,2.78,1.97,4.52,1.74c1.18-0.15,2.22,0.12,3.09,0.81c1.53,1.22,2.07,3.33,2.1,3.61    c0,0.03,0,0.07,0.01,0.13l0,0.02c0.02,0.47,0.07,1.72,0.65,2.93c0.74,1.54,2.05,2.44,3.89,2.7c1.15,0.16,2.04,0.65,2.65,1.47    c1.24,1.68,0.88,4.23,0.86,4.33c-0.03,0.14-0.32,1.35-0.15,2.73c0.24,1.93,1.26,3.27,2.95,3.86c0.89,0.31,1.52,0.87,1.88,1.66    c0.89,1.96-0.13,4.73-0.25,5.04l0,0.01c-0.11,0.16-0.64,1.05-0.86,2.3c-0.22,1.25-0.13,3.11,1.52,4.84    c1.23,1.3,1.58,2.81,1.02,4.51c-0.4,1.21-1.14,2.1-1.22,2.2c-0.16,0.13-0.94,0.82-1.51,1.97c-0.57,1.14-0.99,2.95,0.18,5.1    c0.88,1.61,0.78,3.18-0.29,4.68c-0.74,1.04-1.71,1.67-1.89,1.79l-0.01,0c-0.16,0.06-1.03,0.39-1.82,1.25    c-0.8,0.85-1.67,2.41-1.3,4.97c0.28,1.93-0.31,3.45-1.76,4.52c-1.06,0.79-2.24,1.04-2.29,1.05c-0.05,0.01-1.18,0.19-2.37,0.92    c-1.1,0.68-2.45,1.98-2.62,4.31c-0.13,1.74-1.07,2.98-2.8,3.7c-1.24,0.51-2.47,0.56-2.61,0.56c-0.2-0.03-1.23-0.18-2.48,0.14    c-1.25,0.31-2.95,1.16-3.95,3.43c-0.75,1.7-2.05,2.63-3.84,2.76c-1.29,0.09-2.4-0.28-2.52-0.33c-0.11-0.06-1.11-0.54-2.41-0.6    c-1.26-0.06-3.06,0.28-4.48,2.22c-0.09,0.09-0.9,0.86-2.09,1.3C53.81,99.37,53.25,99.47,52.7,99.47z M49.68,98.25    c1.46,1.15,3.04,1.43,4.68,0.83c1.17-0.43,1.97-1.19,2.06-1.27c1.43-1.97,3.26-2.31,4.55-2.25c1.32,0.06,2.33,0.55,2.44,0.61    c0.12,0.04,1.21,0.41,2.48,0.32c1.77-0.13,3.04-1.04,3.77-2.71c1.01-2.3,2.74-3.16,4.01-3.48c1.27-0.32,2.31-0.17,2.51-0.14    c0.13,0,1.35-0.05,2.57-0.55c1.7-0.7,2.62-1.92,2.75-3.63c0.17-2.37,1.54-3.68,2.66-4.37c1.21-0.74,2.35-0.92,2.4-0.93    c0.05-0.01,1.21-0.26,2.26-1.04c1.42-1.05,2-2.55,1.72-4.44c-0.37-2.59,0.51-4.17,1.32-5.03c0.8-0.86,1.67-1.2,1.85-1.27    c0.13-0.08,1.13-0.73,1.87-1.77c1.05-1.47,1.14-3.01,0.28-4.59c-1.19-2.18-0.75-4.02-0.18-5.18c0.58-1.16,1.37-1.86,1.53-1.99    c0.08-0.09,0.81-0.97,1.2-2.16c0.54-1.67,0.21-3.16-1-4.43c-1.67-1.76-1.76-3.64-1.54-4.91c0.22-1.26,0.75-2.15,0.87-2.33    c0.12-0.33,1.12-3.05,0.25-4.98c-0.35-0.77-0.97-1.32-1.84-1.62c-1.72-0.6-2.76-1.96-3-3.93c-0.17-1.4,0.11-2.62,0.15-2.76    c0.02-0.1,0.37-2.62-0.85-4.27c-0.59-0.8-1.46-1.28-2.59-1.44c-1.87-0.26-3.2-1.18-3.95-2.75c-0.59-1.23-0.64-2.49-0.66-2.97    l0-0.02c0-0.06,0-0.1-0.01-0.12c-0.03-0.27-0.55-2.35-2.07-3.55c-0.86-0.68-1.88-0.95-3.03-0.8c-1.77,0.23-3.36-0.38-4.6-1.77    c-0.92-1.03-1.31-2.12-1.33-2.17l0-0.01c-0.01-0.02-0.52-1.76-2.13-2.64c-1.09-0.59-2.42-0.66-3.97-0.2    c-2.74,0.82-4.49,0.16-5.48-0.54c-0.99-0.7-1.42-1.55-1.5-1.73c-0.08-0.1-0.68-0.89-1.71-1.39c-1.47-0.71-3.08-0.53-4.8,0.53    c-2.32,1.44-4.19,1.43-5.34,1.18c-0.91-0.2-1.53-0.58-1.83-0.8c-1.92,1.54-3.72,1.68-4.89,1.54c-1.23-0.16-2.04-0.65-2.19-0.74    c-1.83-0.83-3.47-0.77-4.88,0.18c-1.06,0.72-1.59,1.7-1.59,1.71L32.9,5.52c-1.29,2.14-2.99,2.89-4.2,3.14    c-1.26,0.26-2.23,0.05-2.33,0.03c-2.07-0.33-3.67,0.2-4.75,1.59c-0.81,1.05-1.02,2.22-1.02,2.24l0,0.02    c-0.63,2.35-2.07,3.5-3.17,4.06c-1.11,0.56-2.07,0.63-2.25,0.64c-1.94,0.37-3.24,1.34-3.88,2.88c-0.47,1.15-0.39,2.2-0.38,2.24    l0,0.01c0.13,2.45-0.95,4.08-1.89,5.02c-0.98,0.98-1.97,1.42-2.08,1.46c-1.67,0.81-2.62,2.08-2.81,3.76    c-0.15,1.27,0.21,2.33,0.22,2.34c0.91,2.4,0.34,4.18-0.3,5.24c-0.63,1.05-1.44,1.63-1.61,1.74c-1.42,1.47-1.97,3.07-1.63,4.73    c0.25,1.2,0.88,2.01,0.95,2.1c1.18,1.2,1.6,2.83,1.21,4.72c-0.28,1.36-0.88,2.37-0.94,2.48c-0.83,1.58-1.05,3-0.66,4.22    c0.51,1.57,1.89,2.28,1.9,2.29l0.03,0.02c1.42,0.97,2.25,2.48,2.42,4.36c0.13,1.41-0.15,2.53-0.17,2.57l0,0.01    c-0.57,1.81-0.23,3.32,0.99,4.5c0.91,0.88,2.02,1.25,2.06,1.27c2.26,0.59,3.28,2.18,3.73,3.4c0.47,1.27,0.44,2.39,0.44,2.52    c0.02,1.83,0.8,3.19,2.3,4.06c1.04,0.6,2.07,0.75,2.29,0.77c1.78-0.23,3.37,0.45,4.59,1.99c0.91,1.15,1.3,2.35,1.31,2.4    c0.54,1.73,1.65,2.79,3.29,3.13c1.25,0.26,2.35,0,2.36-0.01c2.61-0.64,4.39,0.2,5.41,1.02c1.03,0.82,1.52,1.76,1.61,1.94    c1.06,1.37,2.45,2.02,4.13,1.93c1.21-0.07,2.15-0.52,2.25-0.57c2.01-1.39,3.91-1.18,5.15-0.76    C48.75,97.44,49.59,98.16,49.68,98.25z"></path>		</g>		<g>			<path class="st3" d="M46.71,99.96c-0.58,0-1.2-0.12-1.85-0.35c-1.44-0.52-2.51-1.42-2.55-1.46l-0.02-0.02l-0.02-0.02    c-0.01-0.01-0.66-0.91-1.78-1.52c-1.48-0.81-3.06-0.77-4.67,0.14l-0.02,0.01l-0.02,0.01c-0.05,0.02-1.32,0.38-2.82,0.21    c-2.01-0.23-3.46-1.33-4.18-3.18l0-0.01c0-0.01-0.35-1.04-1.23-1.93c-1.16-1.19-2.67-1.6-4.48-1.22    c-0.4,0.08-0.77,0.12-1.11,0.12c-1.81,0-2.96-1.01-3.64-1.95c-0.86-1.19-1.14-2.48-1.15-2.54l0-0.02l0-0.02    c0-0.01,0-1.02-0.57-2.12c-0.77-1.47-2.14-2.4-4.1-2.77c-1.53-0.29-2.66-0.97-3.38-2.02c-1.17-1.72-0.79-3.81-0.77-3.89    c0-0.01,0.18-1.07-0.12-2.33c-0.39-1.66-1.4-2.84-2.99-3.53c-1.72-0.74-2.68-2.19-2.79-4.21c-0.08-1.5,0.33-2.76,0.35-2.82    l0.01-0.03c0.01-0.01,0.53-1.05,0.65-2.37C3.6,58.38,3,56.99,1.68,55.99c-1.44-1.09-1.95-2.68-1.45-4.62    c0.37-1.43,1.14-2.53,1.17-2.57c0.04-0.05,3.07-4.05,0.71-6.94c-1.08-1.33-1.09-2.97-0.03-4.74c0.78-1.31,1.85-2.22,1.9-2.25    l0.03-0.02c0.01-0.01,0.97-0.57,1.77-1.62c1.06-1.39,1.35-2.92,0.86-4.55c-0.53-1.76-0.01-3.45,1.5-4.88    c1.12-1.06,2.38-1.59,2.43-1.62l0.04-0.01c0.01,0,1.04-0.23,2.08-0.99c1.38-1.01,2.14-2.43,2.24-4.21    c0.14-2.42,1.62-3.62,2.84-4.2c1.3-0.62,2.55-0.68,2.61-0.68l0.02,0l0.02,0c0.01,0,1.02,0.12,2.23-0.29    c1.62-0.54,2.83-1.7,3.59-3.45c1.02-2.35,2.74-3.09,4-3.29c1.36-0.22,2.47,0.11,2.51,0.13c0.04,0.01,4.75,1.22,6.57-1.9    c0.71-1.21,1.82-1.94,3.2-2.1c1.65-0.19,3.26,0.44,3.91,0.93c0.27-0.29,0.91-0.88,1.86-1.24c1.17-0.44,3.04-0.6,5.34,1.18    l0.03,0.03c0.01,0.01,0.75,0.82,1.93,1.33c1.57,0.68,3.13,0.53,4.66-0.42l0.02-0.01c0.05-0.02,1.19-0.53,2.62-0.52    c1.34,0.01,3.18,0.5,4.34,2.77c2.05,4.01,6.13,2.91,6.17,2.9c0.08-0.02,1.96-0.51,3.65,0.5c1.12,0.66,1.88,1.82,2.26,3.43l0,0.01    c0,0.01,0.22,1.25,0.98,2.4c0.99,1.52,2.39,2.19,4.17,2l0.03,0l0.03,0c0.05,0.01,1.26,0.18,2.44,0.99    c1.1,0.75,2.35,2.2,2.14,4.87c0,0.01-0.1,1.25,0.29,2.59c0.51,1.75,1.59,2.83,3.2,3.2l0.02,0.01l0.02,0.01    c0.04,0.02,1.02,0.51,1.86,1.57c0.78,0.98,1.58,2.66,0.94,5.06l0,0.01c-0.02,0.05-1.47,4.66,1.64,6.71    c1.42,0.93,1.99,2.49,1.64,4.5c-0.26,1.49-0.91,2.68-0.94,2.73l-0.01,0.01c-0.02,0.04-2.41,3.71-0.21,6.71    c1,1.36,1.08,3.03,0.24,4.83c-0.62,1.34-1.52,2.27-1.56,2.3l-0.02,0.02l-0.03,0.01c-0.01,0-0.9,0.52-1.6,1.57    c-0.94,1.4-1.13,3.04-0.57,4.89c0.76,2.49-0.14,4.08-1.04,4.97c-0.96,0.95-2.08,1.32-2.13,1.33l-0.01,0    c-0.01,0-1.1,0.28-2.14,1.1c-1.37,1.09-2.01,2.59-1.9,4.44c0.16,2.52-1.23,3.83-2.42,4.48c-1.27,0.7-2.56,0.81-2.62,0.81l-0.01,0    l-0.01,0c-0.01,0-1.16-0.01-2.39,0.52c-1.63,0.69-2.64,1.95-2.99,3.73c-0.38,1.92-1.63,3.16-3.63,3.58    c-1.48,0.31-2.82,0.06-2.88,0.05l-0.04-0.01c-0.01,0-0.95-0.38-2.19-0.26c-1.66,0.16-3.05,1.07-4.14,2.7    c-1.47,2.21-3.29,2.54-4.56,2.42c-1.37-0.12-2.38-0.75-2.42-0.78c-0.01-0.01-1.06-0.66-2.43-0.93c-1.8-0.35-3.28,0.11-4.38,1.36    C48.87,99.5,47.86,99.96,46.71,99.96z M42.6,97.84c0.15,0.12,1.14,0.91,2.41,1.37c1.79,0.64,3.25,0.33,4.35-0.91    c1.2-1.36,2.86-1.87,4.8-1.49c1.44,0.28,2.52,0.95,2.57,0.98c0.01,0.01,0.98,0.61,2.25,0.72c1.68,0.14,3.08-0.61,4.16-2.24    c1.45-2.19,3.24-2.78,4.48-2.89c1.25-0.11,2.19,0.22,2.35,0.28c0.16,0.03,1.4,0.22,2.71-0.06c1.83-0.39,2.94-1.48,3.28-3.25    c0.48-2.41,2.03-3.53,3.26-4.05c1.26-0.53,2.4-0.54,2.54-0.54c0.11-0.01,1.31-0.13,2.45-0.76c1.57-0.87,2.31-2.24,2.19-4.08    c-0.16-2.5,1.04-4,2.07-4.81c1.07-0.85,2.16-1.14,2.28-1.17c0.08-0.03,1.11-0.38,1.96-1.24c1.17-1.17,1.48-2.7,0.92-4.53    c-0.75-2.47-0.07-4.23,0.63-5.27c0.7-1.03,1.54-1.56,1.71-1.67c0.27-0.29,3.36-3.7,1.26-6.57c-0.99-1.35-1.27-3.02-0.8-4.84    c0.33-1.31,0.93-2.24,1-2.35c0.11-0.2,2.46-4.67-0.57-6.67c-1.4-0.93-2.16-2.47-2.19-4.46c-0.02-1.45,0.34-2.62,0.38-2.73    c0.47-1.78,0.18-3.36-0.85-4.67c-0.72-0.91-1.57-1.38-1.71-1.46c-1.73-0.41-2.94-1.62-3.49-3.5c-0.41-1.41-0.31-2.68-0.3-2.73    c0.16-1.97-0.49-3.47-1.94-4.47c-1.01-0.69-2.07-0.9-2.25-0.93c-1.91,0.2-3.49-0.56-4.55-2.2c-0.77-1.19-1.01-2.43-1.03-2.54    c-0.36-1.49-1.05-2.55-2.06-3.15c-1.54-0.92-3.31-0.46-3.33-0.45c-0.04,0.01-1.12,0.31-2.49,0.08C69.75,8.4,68,7.67,66.84,5.42    c-0.85-1.67-2.18-2.52-3.95-2.54c-1.26-0.01-2.32,0.43-2.45,0.48c-2.06,1.28-3.89,0.95-5.06,0.44c-1.19-0.52-1.94-1.29-2.05-1.41    c-1.71-1.32-3.35-1.69-4.89-1.12c-1.16,0.43-1.83,1.27-1.84,1.28l-0.15,0.19l-0.17-0.18c-0.42-0.44-2.07-1.15-3.73-0.96    c-1.27,0.15-2.24,0.79-2.89,1.89c-0.83,1.41-2.31,2.22-4.3,2.34c-1.48,0.09-2.7-0.23-2.75-0.25c-0.02-0.01-1.08-0.32-2.34-0.11    c-1.68,0.28-2.91,1.3-3.66,3.04c-1.01,2.34-2.66,3.3-3.86,3.69c-1.22,0.4-2.23,0.32-2.38,0.3c-0.14,0.01-1.29,0.09-2.44,0.64    c-1.61,0.77-2.48,2.06-2.58,3.84c-0.14,2.4-1.4,3.8-2.43,4.54c-1.04,0.76-2.04,1.01-2.2,1.05c-0.15,0.07-1.3,0.59-2.3,1.53    c-1.4,1.32-1.86,2.82-1.38,4.44c0.66,2.21-0.14,3.91-0.94,4.94c-0.8,1.04-1.73,1.62-1.87,1.71c-0.25,0.22-4.06,3.6-1.79,6.39    c1.07,1.31,1.28,3.02,0.62,4.95c-0.49,1.43-1.29,2.47-1.32,2.51c0,0-0.76,1.08-1.1,2.44c-0.45,1.77-0.01,3.17,1.3,4.16    c1.43,1.08,2.1,2.64,1.93,4.52c-0.12,1.32-0.61,2.35-0.69,2.5c-0.04,0.14-0.4,1.32-0.32,2.66c0.11,1.86,0.96,3.15,2.54,3.83    c2.15,0.92,2.95,2.59,3.24,3.83c0.31,1.33,0.12,2.44,0.12,2.49c0,0.01-0.21,1.17,0.16,2.4c0.49,1.64,1.72,2.65,3.66,3.02    c2.61,0.49,3.84,1.91,4.41,3.01c0.57,1.1,0.61,2.1,0.61,2.27c0.04,0.17,0.33,1.32,1.08,2.37c1.06,1.47,2.52,2.03,4.31,1.66    c2.45-0.51,4.01,0.46,4.88,1.35c0.92,0.94,1.28,1.98,1.32,2.08c0.67,1.71,1.96,2.69,3.82,2.91c1.31,0.15,2.47-0.14,2.64-0.19    c2.18-1.2,3.96-0.73,5.07-0.12C41.82,96.84,42.48,97.69,42.6,97.84z"></path>			<path class="st3" d="M46.71,100c-0.59,0-1.21-0.12-1.86-0.35c-1.45-0.52-2.52-1.42-2.56-1.46l-0.03-0.02l-0.02-0.02    c-0.01-0.01-0.65-0.9-1.77-1.51c-1.47-0.8-3.03-0.76-4.63,0.13l-0.03,0.02l-0.02,0.01c-0.05,0.02-1.32,0.39-2.84,0.21    c-2.03-0.23-3.49-1.34-4.22-3.21l0-0.01c-0.01-0.04-0.36-1.04-1.22-1.92c-1.15-1.18-2.65-1.58-4.44-1.21    c-0.38,0.08-0.76,0.12-1.12,0.12c-1.86,0-3.02-1.07-3.67-1.97c-0.86-1.2-1.15-2.5-1.16-2.55l-0.01-0.03l0-0.03    c0-0.01,0-1.01-0.57-2.1c-0.76-1.45-2.13-2.38-4.07-2.75c-1.54-0.29-2.69-0.98-3.41-2.04c-1.18-1.74-0.8-3.84-0.78-3.93    c0.01-0.04,0.18-1.08-0.11-2.31c-0.39-1.64-1.39-2.82-2.96-3.5c-1.73-0.74-2.71-2.21-2.82-4.24c-0.08-1.51,0.33-2.78,0.35-2.83    l0.01-0.03c0.01-0.01,0.53-1.05,0.65-2.36c0.16-1.73-0.43-3.1-1.74-4.09c-1.46-1.1-1.97-2.71-1.47-4.66    c0.37-1.44,1.15-2.54,1.18-2.59c0.03-0.04,3.04-4.03,0.72-6.89c-1.09-1.34-1.1-3-0.04-4.79c0.78-1.31,1.86-2.23,1.9-2.26    l0.03-0.02c0.01-0.01,0.97-0.58,1.77-1.61c1.05-1.37,1.34-2.89,0.85-4.51c-0.53-1.78-0.01-3.48,1.51-4.92    c1.13-1.07,2.39-1.6,2.44-1.62l0.04-0.01c0.01,0,1.03-0.23,2.07-0.99c1.37-1,2.12-2.41,2.22-4.18c0.14-2.44,1.63-3.65,2.86-4.24    c1.31-0.62,2.57-0.68,2.62-0.68l0.02,0l0.02,0c0.01,0,1.01,0.12,2.22-0.28c1.61-0.53,2.81-1.69,3.56-3.43    c1.02-2.37,2.76-3.11,4.03-3.32c1.37-0.22,2.49,0.11,2.53,0.13c0.05,0.01,4.73,1.19,6.52-1.88c0.71-1.22,1.83-1.95,3.23-2.12    c1.68-0.2,3.27,0.45,3.91,0.92c0.3-0.32,0.93-0.88,1.85-1.23c1.18-0.45,3.07-0.6,5.38,1.19l0.03,0.03    c0.01,0.01,0.75,0.81,1.92,1.32c1.55,0.67,3.11,0.53,4.62-0.42l0.03-0.01c0.05-0.02,1.2-0.54,2.64-0.53    c1.35,0.01,3.2,0.5,4.37,2.8c2.03,3.98,6.08,2.89,6.12,2.88c0.08-0.02,1.98-0.51,3.69,0.5c1.13,0.67,1.89,1.83,2.28,3.45l0,0.01    c0,0.01,0.22,1.24,0.97,2.39c0.98,1.5,2.37,2.17,4.13,1.98l0.03,0l0.03,0c0.05,0.01,1.27,0.18,2.46,1    c1.1,0.76,2.37,2.22,2.16,4.9c0,0.01-0.1,1.24,0.29,2.57c0.51,1.74,1.58,2.8,3.17,3.17l0.03,0.01l0.02,0.01    c0.04,0.02,1.03,0.51,1.88,1.58c0.79,0.99,1.59,2.68,0.95,5.1l0,0.01c-0.02,0.05-1.46,4.63,1.62,6.66    c1.43,0.94,2.01,2.52,1.66,4.54c-0.26,1.49-0.92,2.69-0.94,2.74l-0.01,0.02c-0.03,0.04-2.4,3.68-0.21,6.66    c1.01,1.37,1.09,3.06,0.25,4.88c-0.62,1.34-1.53,2.28-1.57,2.32l-0.03,0.03l-0.03,0.01c-0.01,0-0.89,0.51-1.59,1.55    c-0.93,1.39-1.12,3.02-0.56,4.86c0.77,2.51-0.15,4.11-1.05,5.01c-0.97,0.96-2.1,1.33-2.15,1.34l-0.01,0    c-0.01,0-1.09,0.28-2.12,1.09c-1.36,1.08-1.99,2.57-1.88,4.41c0.16,2.54-1.24,3.86-2.44,4.52c-1.28,0.7-2.58,0.81-2.63,0.82    l-0.02,0c-0.12,0-1.22,0.02-2.38,0.51c-1.62,0.69-2.62,1.93-2.97,3.7c-0.38,1.94-1.65,3.19-3.66,3.61    c-1.49,0.31-2.84,0.06-2.9,0.05l-0.04-0.01c-0.01-0.01-0.94-0.38-2.18-0.26c-1.65,0.15-3.03,1.06-4.11,2.69    c-1.48,2.22-3.32,2.56-4.6,2.44c-1.38-0.12-2.4-0.76-2.44-0.79c-0.01-0.01-1.06-0.66-2.42-0.92c-1.79-0.35-3.25,0.11-4.34,1.35    C48.9,99.53,47.89,100,46.71,100z M42.32,98.11l0.02,0.01c0.04,0.04,1.11,0.93,2.54,1.45c0.64,0.23,1.26,0.35,1.84,0.35    c1.15,0,2.14-0.46,2.94-1.36c1.12-1.26,2.6-1.73,4.42-1.37c1.38,0.27,2.44,0.93,2.45,0.93c0.04,0.03,1.04,0.65,2.4,0.77    c1.26,0.11,3.07-0.21,4.53-2.41c1.1-1.65,2.5-2.57,4.17-2.72c1.25-0.12,2.2,0.26,2.21,0.26l0.04,0.01    c0.05,0.01,1.39,0.26,2.86-0.05c1.97-0.42,3.22-1.64,3.59-3.55c0.35-1.8,1.37-3.06,3.02-3.76c1.17-0.5,2.28-0.52,2.41-0.52    l0.01,0l0.01,0c0.05,0,1.33-0.11,2.6-0.81c1.18-0.65,2.56-1.94,2.4-4.44c-0.12-1.87,0.53-3.38,1.91-4.48    c1.05-0.83,2.14-1.11,2.15-1.11l0.01,0C90.88,75.3,92,74.94,92.95,74c0.88-0.88,1.78-2.45,1.03-4.92    c-0.57-1.86-0.38-3.52,0.57-4.93c0.71-1.06,1.61-1.57,1.62-1.58l0.02-0.01l0.02-0.02c0.04-0.04,0.93-0.96,1.55-2.29    c0.83-1.79,0.75-3.44-0.24-4.79c-2.22-3.03,0.18-6.72,0.21-6.76l0.01-0.01c0.03-0.05,0.68-1.24,0.93-2.72    c0.34-1.99-0.22-3.53-1.62-4.46c-3.14-2.07-1.67-6.71-1.66-6.76l0-0.01c0.63-2.38-0.16-4.05-0.93-5.03    c-0.84-1.06-1.81-1.54-1.85-1.56l-0.02-0.01l-0.02,0c-1.62-0.37-2.71-1.46-3.23-3.23c-0.4-1.35-0.3-2.59-0.29-2.6    c0.22-2.64-1.03-4.08-2.12-4.83c-1.17-0.8-2.37-0.98-2.42-0.98l-0.02,0l-0.02,0c-1.8,0.2-3.21-0.48-4.21-2.01    c-0.76-1.16-0.98-2.41-0.98-2.42l0-0.01c-0.38-1.6-1.14-2.74-2.24-3.4c-1.68-1-3.54-0.51-3.62-0.49    c-0.04,0.01-4.15,1.12-6.21-2.92c-1.15-2.25-2.97-2.74-4.3-2.75c-1.43-0.01-2.56,0.5-2.61,0.52l-0.02,0.01    c-1.54,0.96-3.12,1.11-4.7,0.43c-1.19-0.51-1.94-1.33-1.94-1.34l-0.03-0.02c-2.28-1.77-4.14-1.61-5.29-1.18    c-0.93,0.35-1.55,0.92-1.84,1.23l-0.03,0.03L46.4,2.15c-0.61-0.46-2.2-1.12-3.88-0.92c-1.37,0.16-2.47,0.88-3.17,2.08    c-1.83,3.12-6.57,1.93-6.62,1.92c-0.05-0.01-1.15-0.34-2.5-0.12c-1.25,0.2-2.96,0.93-3.97,3.27c-0.76,1.76-1.98,2.93-3.61,3.48    c-1.22,0.4-2.24,0.29-2.25,0.29l-0.02,0l-0.01,0c-0.05,0-1.3,0.06-2.59,0.67c-1.21,0.58-2.68,1.77-2.81,4.17    c-0.1,1.8-0.86,3.23-2.26,4.25c-1.05,0.77-2.08,1-2.09,1l-0.03,0.01c-0.05,0.02-1.3,0.55-2.42,1.61    c-1.5,1.41-2.01,3.09-1.49,4.83c0.49,1.65,0.2,3.19-0.87,4.59c-0.8,1.05-1.78,1.63-1.79,1.63L4,34.91    c-0.04,0.04-1.11,0.94-1.88,2.24c-1.05,1.76-1.04,3.38,0.03,4.69c2.36,2.91-0.68,6.95-0.71,6.99c-0.03,0.04-0.8,1.14-1.16,2.56    c-0.49,1.92,0.01,3.5,1.44,4.57c1.34,1.01,1.93,2.41,1.78,4.16c-0.12,1.33-0.65,2.37-0.66,2.39l-0.01,0.03    c-0.02,0.05-0.43,1.31-0.34,2.8c0.11,2,1.07,3.44,2.77,4.17c1.6,0.69,2.62,1.88,3.01,3.56c0.3,1.24,0.12,2.3,0.12,2.34    c-0.02,0.09-0.4,2.15,0.77,3.86c0.71,1.04,1.84,1.72,3.35,2c1.97,0.37,3.36,1.31,4.13,2.79c0.58,1.11,0.58,2.13,0.58,2.14l0,0.02    l0,0.02c0.01,0.05,0.29,1.34,1.14,2.52c0.64,0.88,1.78,1.93,3.6,1.93c0.35,0,0.73-0.04,1.1-0.12c1.82-0.38,3.34,0.04,4.52,1.24    c0.88,0.89,1.22,1.9,1.24,1.95l0,0.01c0.72,1.84,2.15,2.93,4.15,3.15c1.5,0.17,2.75-0.2,2.8-0.21l0.02-0.01l0.02-0.01    c1.63-0.91,3.21-0.95,4.71-0.14c1.14,0.62,1.79,1.52,1.79,1.53L42.32,98.11z M46.72,99.58c-0.53,0-1.11-0.11-1.72-0.33    c-1.26-0.45-2.24-1.22-2.42-1.37l-0.01-0.01c-0.12-0.16-0.78-1-1.88-1.6c-1.1-0.61-2.87-1.08-5.03,0.12l-0.01,0    c-0.21,0.06-1.35,0.34-2.66,0.19c-1.88-0.22-3.18-1.21-3.85-2.93c-0.04-0.12-0.4-1.14-1.31-2.06c-0.87-0.89-2.41-1.85-4.84-1.34    c-1.81,0.38-3.28-0.19-4.35-1.67c-0.77-1.06-1.06-2.25-1.09-2.38l0-0.01c0-0.19-0.04-1.16-0.61-2.26    c-0.56-1.09-1.78-2.49-4.38-2.98c-1.96-0.37-3.2-1.39-3.69-3.05c-0.37-1.24-0.16-2.41-0.16-2.42c0.01-0.05,0.2-1.14-0.12-2.47    c-0.29-1.23-1.08-2.89-3.21-3.81c-1.59-0.68-2.45-1.98-2.56-3.86c-0.08-1.35,0.28-2.54,0.32-2.67c0.06-0.12,0.56-1.16,0.68-2.49    c0.17-1.86-0.49-3.41-1.91-4.48c-1.33-1-1.77-2.41-1.31-4.2c0.33-1.3,1.03-2.33,1.11-2.45c0.04-0.05,0.82-1.08,1.31-2.5    c0.66-1.91,0.45-3.61-0.61-4.91c-2.3-2.83,1.63-6.3,1.8-6.44c0.18-0.11,1.08-0.68,1.87-1.7c0.79-1.03,1.59-2.71,0.93-4.9    c-0.49-1.64-0.02-3.14,1.39-4.48c1.01-0.96,2.18-1.48,2.31-1.54c0.19-0.05,1.17-0.3,2.2-1.05c1.02-0.74,2.27-2.13,2.41-4.51    c0.1-1.79,0.98-3.09,2.61-3.87c1.16-0.56,2.32-0.64,2.45-0.65c0.19,0.02,1.17,0.1,2.37-0.3c1.2-0.39,2.83-1.35,3.83-3.67    c0.76-1.76,2-2.79,3.69-3.07c1.26-0.21,2.32,0.1,2.36,0.11c0.05,0.01,1.27,0.33,2.74,0.24c1.97-0.12,3.45-0.92,4.27-2.32    c0.65-1.12,1.64-1.76,2.92-1.91c1.67-0.2,3.34,0.53,3.76,0.97l0.14,0.14l0.12-0.15c0.01-0.01,0.69-0.86,1.85-1.3    c1.56-0.58,3.22-0.2,4.93,1.12c0.14,0.15,0.87,0.9,2.04,1.41c1.16,0.5,2.97,0.84,5.02-0.44c0.12-0.05,1.19-0.5,2.47-0.49    c1.78,0.02,3.13,0.88,3.98,2.56c1.14,2.24,2.88,2.96,4.14,3.17c1.36,0.23,2.43-0.07,2.47-0.08c0.02,0,1.81-0.46,3.36,0.46    c1.02,0.61,1.72,1.68,2.08,3.18c0.02,0.14,0.26,1.35,1.02,2.53c1.06,1.63,2.62,2.38,4.51,2.18l0.01,0l0.01,0    c0.2,0.03,1.26,0.24,2.26,0.93c1.46,1.01,2.12,2.53,1.96,4.51c0,0.05-0.1,1.31,0.3,2.71c0.54,1.86,1.74,3.06,3.46,3.47l0.01,0    c0.16,0.09,1,0.56,1.72,1.47c1.05,1.33,1.33,2.91,0.86,4.71c-0.04,0.13-0.4,1.28-0.38,2.72c0.03,1.98,0.78,3.51,2.17,4.43    c3.06,2.02,0.68,6.53,0.58,6.72c-0.07,0.1-0.66,1.03-0.99,2.34c-0.46,1.81-0.18,3.47,0.8,4.8c2.11,2.87-0.91,6.25-1.27,6.62    l-0.01,0.01c-0.16,0.1-1,0.63-1.69,1.65c-0.7,1.03-1.37,2.78-0.62,5.23c0.56,1.85,0.25,3.39-0.93,4.57    c-0.85,0.85-1.87,1.21-1.98,1.25c-0.12,0.03-1.2,0.32-2.27,1.16c-1.02,0.81-2.21,2.29-2.05,4.78c0.12,1.86-0.63,3.24-2.21,4.12    c-1.15,0.63-2.33,0.76-2.47,0.77c-0.21,0-1.31,0.03-2.53,0.54c-1.21,0.51-2.76,1.62-3.23,4.02c-0.35,1.78-1.47,2.89-3.32,3.28    c-1.32,0.28-2.58,0.08-2.72,0.06c-0.18-0.07-1.11-0.39-2.34-0.28c-1.23,0.11-3,0.7-4.45,2.88c-1.09,1.64-2.5,2.4-4.2,2.26    c-1.28-0.11-2.26-0.72-2.26-0.72c-0.04-0.03-1.11-0.7-2.55-0.98c-1.92-0.38-3.57,0.13-4.76,1.48    C48.66,99.16,47.76,99.58,46.72,99.58z M42.63,97.81c0.13,0.11,1.14,0.91,2.4,1.36c1.77,0.63,3.22,0.33,4.3-0.9    c1.21-1.37,2.88-1.89,4.83-1.51c1.45,0.29,2.53,0.96,2.58,0.99c0.01,0.01,0.97,0.6,2.23,0.71c1.66,0.14,3.05-0.61,4.12-2.22    c1.46-2.2,3.26-2.8,4.51-2.91c1.25-0.11,2.19,0.22,2.37,0.29c0.13,0.02,1.37,0.22,2.68-0.06c1.81-0.38,2.91-1.47,3.25-3.21    c0.48-2.43,2.05-3.56,3.28-4.08c1.23-0.52,2.34-0.55,2.55-0.55c0,0,0,0,0,0c0.13-0.01,1.3-0.14,2.43-0.76    c1.55-0.86,2.28-2.22,2.17-4.04c-0.16-2.52,1.05-4.03,2.08-4.85c1.08-0.85,2.17-1.15,2.29-1.18c0.11-0.04,1.1-0.38,1.94-1.23    c1.16-1.16,1.46-2.67,0.91-4.49c-0.76-2.49-0.07-4.26,0.64-5.31c0.7-1.03,1.54-1.57,1.71-1.67c0.37-0.39,3.32-3.7,1.26-6.51    c-1-1.36-1.28-3.04-0.81-4.88c0.33-1.32,0.93-2.26,1-2.36c0.1-0.19,2.45-4.63-0.55-6.61c-1.42-0.93-2.18-2.49-2.21-4.5    c-0.02-1.45,0.34-2.61,0.38-2.74c0.47-1.77,0.18-3.33-0.85-4.63c-0.7-0.89-1.52-1.35-1.69-1.44c-1.75-0.41-2.96-1.63-3.51-3.53    c-0.41-1.42-0.31-2.69-0.31-2.74c0.16-1.95-0.49-3.44-1.92-4.43c-0.98-0.68-2.01-0.88-2.22-0.92c-1.93,0.2-3.52-0.57-4.59-2.22    c-0.78-1.2-1.01-2.42-1.04-2.56c-0.35-1.47-1.04-2.53-2.04-3.12c-1.52-0.91-3.28-0.46-3.29-0.45c-0.04,0.01-1.13,0.32-2.51,0.08    c-1.28-0.21-3.04-0.95-4.2-3.22c-0.84-1.65-2.16-2.5-3.91-2.52c-1.26-0.01-2.31,0.43-2.43,0.48c-2.07,1.29-3.91,0.95-5.09,0.44    c-1.18-0.51-1.93-1.28-2.06-1.42c-1.69-1.3-3.32-1.68-4.85-1.11c-1.14,0.43-1.81,1.26-1.82,1.27L46.47,2.8l-0.2-0.21    c-0.41-0.43-2.05-1.14-3.69-0.94c-1.25,0.15-2.22,0.78-2.85,1.87c-0.83,1.42-2.33,2.24-4.34,2.36c-1.49,0.09-2.71-0.23-2.77-0.25    c-0.04-0.01-1.08-0.32-2.33-0.11c-1.66,0.27-2.88,1.29-3.63,3.02c-1.02,2.35-2.67,3.32-3.89,3.72c-1.22,0.4-2.21,0.32-2.4,0.3    c-0.12,0.01-1.27,0.09-2.41,0.64c-1.6,0.77-2.46,2.04-2.56,3.8c-0.14,2.42-1.41,3.82-2.44,4.58c-1.04,0.75-2.03,1.01-2.22,1.06    c-0.12,0.05-1.28,0.58-2.28,1.52c-1.39,1.31-1.85,2.79-1.37,4.39c0.67,2.23-0.15,3.94-0.94,4.98c-0.8,1.04-1.71,1.61-1.88,1.72    c-0.16,0.14-4.03,3.56-1.78,6.32c1.08,1.32,1.29,3.05,0.62,4.99C2.6,48,1.81,49.04,1.77,49.08c-0.03,0.04-0.76,1.11-1.1,2.42    c-0.45,1.76-0.01,3.14,1.28,4.12c1.44,1.09,2.12,2.66,1.94,4.55c-0.12,1.31-0.6,2.32-0.69,2.51c-0.04,0.12-0.39,1.3-0.32,2.64    c0.11,1.85,0.95,3.12,2.51,3.79c2.17,0.93,2.97,2.61,3.26,3.86c0.32,1.34,0.12,2.46,0.12,2.5c0,0.01-0.21,1.16,0.16,2.38    c0.48,1.62,1.7,2.63,3.63,2.99c2.63,0.5,3.86,1.92,4.44,3.03c0.57,1.1,0.61,2.09,0.61,2.29c0.04,0.15,0.33,1.31,1.08,2.35    c1.05,1.46,2.49,2.01,4.27,1.64c2.47-0.51,4.04,0.46,4.92,1.37c0.92,0.94,1.29,1.98,1.33,2.09c0.67,1.7,1.94,2.67,3.79,2.88    c1.3,0.15,2.47-0.15,2.62-0.19c2.19-1.21,3.99-0.73,5.11-0.11C41.83,96.8,42.5,97.64,42.63,97.81z"></path>		</g>	</g>	<g>		<path class="st2" d="M19.95,78.1c-0.35,0.3-0.71,0.42-1.09,0.37c-0.37-0.06-0.74-0.29-1.09-0.69l-0.26-0.3l-1.16,1l-0.6-0.69   l3.26-2.81l0.9,1.04c0.34,0.39,0.52,0.77,0.52,1.12C20.45,77.49,20.29,77.81,19.95,78.1z M18.08,76.99l0.2,0.23   c0.18,0.21,0.36,0.34,0.54,0.37c0.17,0.03,0.34-0.02,0.5-0.16c0.16-0.14,0.24-0.29,0.24-0.44c0-0.16-0.08-0.33-0.24-0.52   l-0.27-0.31L18.08,76.99z"></path>		<path class="st2" d="M21.09,81.05l-1.11,1.22l-0.68-0.61l2.89-3.19l0.93,0.84c0.43,0.39,0.68,0.76,0.75,1.11   c0.06,0.35-0.05,0.68-0.34,1c-0.17,0.19-0.37,0.31-0.61,0.36c-0.24,0.05-0.49,0.03-0.75-0.05c-0.17,1.15-0.28,1.9-0.32,2.24   l-0.75-0.68l0.35-1.91L21.09,81.05z M21.59,80.5l0.22,0.2c0.21,0.19,0.4,0.3,0.57,0.32c0.17,0.02,0.32-0.05,0.46-0.2   c0.14-0.15,0.18-0.31,0.14-0.46c-0.05-0.16-0.18-0.34-0.4-0.53l-0.21-0.19L21.59,80.5z"></path>		<path class="st2" d="M27.9,85.66c-0.4,0.59-0.86,0.94-1.37,1.06c-0.51,0.12-1.03-0.01-1.58-0.39c-0.54-0.37-0.85-0.82-0.93-1.33   c-0.07-0.52,0.09-1.07,0.5-1.66c0.41-0.59,0.86-0.94,1.37-1.05c0.51-0.11,1.03,0.02,1.58,0.39c0.55,0.37,0.86,0.82,0.93,1.33   C28.47,84.52,28.31,85.07,27.9,85.66z M25.31,83.88c-0.27,0.4-0.4,0.75-0.39,1.05s0.17,0.56,0.47,0.76   c0.6,0.41,1.17,0.22,1.72-0.58c0.55-0.8,0.52-1.4-0.07-1.81c-0.3-0.21-0.59-0.26-0.88-0.16C25.87,83.24,25.58,83.49,25.31,83.88z"></path>		<path class="st2" d="M32.89,85.88l0.82,0.41l-3.24,3.19l-0.89-0.45l0.63-4.5l0.82,0.41l-0.43,2.65c-0.03,0.16-0.07,0.33-0.11,0.53   c-0.05,0.2-0.08,0.34-0.11,0.42c0.1-0.15,0.31-0.4,0.62-0.75L32.89,85.88z"></path>		<path class="st2" d="M33.62,90.87l1.54-4.02l0.85,0.33l-1.54,4.02L33.62,90.87z"></path>		<path class="st2" d="M40.57,92.99l-1.12-0.29l-1.01-3.62l-0.03-0.01c-0.11,0.57-0.19,0.97-0.25,1.21l-0.5,1.96l-0.79-0.2   l1.07-4.17l1.12,0.29l1.01,3.59l0.02,0.01c0.11-0.55,0.19-0.94,0.25-1.16l0.51-1.97l0.8,0.2L40.57,92.99z"></path>		<path class="st2" d="M45.33,90.05c-0.34-0.04-0.62,0.06-0.84,0.29c-0.22,0.23-0.35,0.58-0.41,1.04c-0.11,0.95,0.19,1.47,0.91,1.56   c0.3,0.03,0.67,0,1.12-0.1l-0.09,0.76c-0.37,0.11-0.77,0.13-1.2,0.08c-0.62-0.07-1.08-0.32-1.36-0.73   c-0.29-0.42-0.39-0.98-0.31-1.68c0.05-0.44,0.18-0.82,0.38-1.14c0.2-0.32,0.46-0.54,0.79-0.69c0.32-0.14,0.69-0.19,1.1-0.14   c0.42,0.05,0.82,0.2,1.22,0.45l-0.38,0.7c-0.15-0.09-0.3-0.18-0.46-0.25C45.65,90.12,45.49,90.07,45.33,90.05z"></path>		<path class="st2" d="M50.91,93.86l-2.48,0.04l-0.07-4.31l2.48-0.04l0.01,0.75l-1.57,0.03l0.02,0.95l1.46-0.02l0.01,0.75   l-1.46,0.02l0.02,1.11l1.57-0.03L50.91,93.86z"></path>		<path class="st2" d="M59.56,90.55c0.14,0.7,0.07,1.27-0.2,1.72c-0.27,0.44-0.73,0.73-1.38,0.86c-0.65,0.13-1.18,0.04-1.6-0.27   c-0.42-0.31-0.7-0.81-0.84-1.52c-0.14-0.7-0.07-1.27,0.2-1.71c0.27-0.44,0.74-0.72,1.39-0.85c0.65-0.13,1.18-0.04,1.6,0.27   C59.15,89.34,59.42,89.85,59.56,90.55z M56.48,91.15c0.09,0.47,0.25,0.81,0.48,1.01c0.23,0.2,0.52,0.27,0.87,0.2   c0.71-0.14,0.98-0.69,0.79-1.64c-0.19-0.95-0.64-1.36-1.35-1.22c-0.36,0.07-0.6,0.24-0.74,0.52   C56.41,90.31,56.39,90.68,56.48,91.15z"></path>		<path class="st2" d="M63.12,91.72L62.27,92l-1.36-4.08l2.34-0.78l0.24,0.71l-1.49,0.5l0.35,1.05l1.39-0.46l0.24,0.71l-1.39,0.46   L63.12,91.72z"></path>		<path class="st2" d="M69.23,85.08c-0.3,0.17-0.47,0.41-0.51,0.73c-0.04,0.32,0.05,0.68,0.28,1.08c0.47,0.84,1.01,1.09,1.64,0.74   c0.26-0.15,0.55-0.39,0.85-0.73l0.37,0.67c-0.24,0.3-0.55,0.56-0.93,0.77c-0.55,0.3-1.06,0.37-1.53,0.2   c-0.47-0.17-0.88-0.57-1.23-1.19c-0.22-0.39-0.34-0.77-0.36-1.15c-0.02-0.37,0.06-0.71,0.24-1.02c0.18-0.31,0.45-0.56,0.81-0.76   c0.37-0.2,0.78-0.32,1.25-0.35l0.1,0.79c-0.18,0.01-0.35,0.03-0.52,0.06C69.52,84.95,69.37,85,69.23,85.08z"></path>		<path class="st2" d="M75.94,84.97l-2.01,1.45l-2.51-3.5l2.01-1.45l0.44,0.61l-1.27,0.91l0.55,0.77l1.18-0.85l0.44,0.61l-1.18,0.85   l0.65,0.9l1.27-0.91L75.94,84.97z"></path>		<path class="st2" d="M74.88,80.31l0.99-0.9c0.45-0.41,0.84-0.65,1.16-0.71c0.32-0.06,0.61,0.05,0.87,0.33   c0.17,0.19,0.27,0.39,0.29,0.59c0.02,0.2-0.03,0.38-0.15,0.54l0.02,0.02c0.24-0.14,0.46-0.19,0.67-0.15s0.4,0.16,0.58,0.37   c0.27,0.29,0.37,0.61,0.31,0.97c-0.06,0.35-0.27,0.69-0.63,1.02l-1.19,1.09L74.88,80.31z M76.7,80.95l0.39-0.36   c0.18-0.17,0.29-0.32,0.32-0.45c0.03-0.13-0.01-0.26-0.13-0.39c-0.11-0.12-0.24-0.17-0.37-0.14s-0.3,0.13-0.5,0.31l-0.35,0.32   L76.7,80.95z M77.19,81.48l0.76,0.83l0.44-0.4c0.19-0.17,0.29-0.33,0.31-0.48c0.02-0.15-0.03-0.3-0.17-0.45   c-0.24-0.26-0.55-0.22-0.93,0.12L77.19,81.48z"></path>		<path class="st2" d="M80.71,74.17l2.14,1.79c0.24,0.2,0.41,0.44,0.5,0.7c0.09,0.26,0.1,0.54,0.03,0.83   c-0.07,0.29-0.23,0.57-0.47,0.85c-0.36,0.42-0.74,0.66-1.15,0.72c-0.41,0.05-0.81-0.08-1.19-0.4l-2.13-1.78l0.58-0.7l2.02,1.69   c0.25,0.21,0.48,0.32,0.69,0.32c0.2,0,0.41-0.12,0.6-0.36c0.19-0.23,0.27-0.44,0.24-0.65c-0.03-0.2-0.18-0.41-0.43-0.63   l-2.02-1.69L80.71,74.17z"></path>	</g>	<g>		<path class="st2" d="M11.06,44.22l-4.05,0.68l0,0.03c0.57,0.06,1.11,0.13,1.61,0.22l2.23,0.38l-0.12,0.68l-4.58-0.78l0.18-1.06   l3.86-0.65l0-0.02l-3.42-1.93l0.18-1.06l4.58,0.78L11.4,42.2l-2.27-0.39c-0.23-0.04-0.52-0.1-0.89-0.17   c-0.36-0.07-0.58-0.12-0.66-0.14l0,0.03l3.59,2.02L11.06,44.22z"></path>		<path class="st2" d="M8.9,34.44l2.84,0.98c0.32,0.11,0.58,0.28,0.78,0.5c0.2,0.22,0.31,0.49,0.35,0.8c0.04,0.31,0,0.65-0.13,1.01   c-0.19,0.54-0.48,0.92-0.87,1.12c-0.39,0.2-0.84,0.22-1.35,0.04L7.7,37.93l0.25-0.72l2.78,0.96c0.36,0.12,0.66,0.13,0.89,0.02   c0.23-0.11,0.41-0.34,0.53-0.69c0.23-0.68,0-1.14-0.72-1.38l-2.77-0.96L8.9,34.44z"></path>		<path class="st2" d="M15.94,30.58L15.5,31.4l-4.34,0.3l-0.01,0.02l0.19,0.08c0.36,0.16,0.69,0.31,0.98,0.46l2.14,1.13l-0.32,0.61   l-4.11-2.17l0.43-0.82l4.32-0.3l0.01-0.02c-0.05-0.02-0.21-0.09-0.48-0.23c-0.28-0.13-0.49-0.24-0.64-0.32l-2.15-1.13l0.32-0.62   L15.94,30.58z"></path>		<path class="st2" d="M17.19,28.68l-3.83-2.63l0.43-0.63l3.83,2.63L17.19,28.68z"></path>		<path class="st2" d="M17.17,22.07c-0.28,0.33-0.39,0.69-0.32,1.08c0.07,0.39,0.32,0.76,0.73,1.12c0.43,0.37,0.84,0.56,1.22,0.57   c0.38,0.01,0.72-0.16,1.01-0.51c0.13-0.15,0.24-0.31,0.33-0.47c0.09-0.17,0.18-0.34,0.26-0.54l0.5,0.42   c-0.13,0.37-0.35,0.73-0.65,1.08c-0.44,0.52-0.94,0.78-1.49,0.79c-0.55,0.01-1.12-0.24-1.7-0.73c-0.37-0.31-0.63-0.66-0.79-1.03   s-0.2-0.74-0.13-1.12s0.25-0.74,0.55-1.08c0.31-0.36,0.67-0.63,1.08-0.81l0.3,0.62c-0.16,0.07-0.32,0.15-0.47,0.25   C17.43,21.8,17.29,21.92,17.17,22.07z"></path>		<path class="st2" d="M22.46,22.4l-3.2-3.37l0.55-0.52l3.2,3.37L22.46,22.4z"></path>		<path class="st2" d="M25.19,15.9c0.3,0.39,0.4,0.78,0.3,1.18c-0.09,0.4-0.37,0.78-0.84,1.13l-0.38,0.29l1.06,1.38l-0.6,0.46   l-2.83-3.69l1.06-0.81c0.46-0.35,0.88-0.52,1.25-0.51C24.58,15.34,24.91,15.53,25.19,15.9z M23.88,17.99l0.32-0.25   c0.31-0.24,0.49-0.47,0.56-0.68c0.06-0.22,0.01-0.44-0.17-0.67c-0.16-0.21-0.35-0.32-0.56-0.32c-0.21,0-0.45,0.1-0.73,0.31   l-0.42,0.32L23.88,17.99z"></path>		<path class="st2" d="M31.26,15.97l-1.05-0.89l-1.54,0.89l0.25,1.34l-0.69,0.4l-0.83-4.91l0.72-0.41l3.84,3.17L31.26,15.97z    M29.71,14.62l-1.01-0.88c-0.07-0.06-0.17-0.15-0.31-0.28c-0.14-0.13-0.24-0.23-0.3-0.29c0.08,0.25,0.15,0.54,0.21,0.87l0.24,1.26   L29.71,14.62z"></path>		<path class="st2" d="M33.45,14.9l-1.79-4.29l0.7-0.29l1.54,3.69l1.81-0.76l0.25,0.6L33.45,14.9z"></path>		<path class="st2" d="M37.75,13.27l-1.36-4.44l0.73-0.22l1.36,4.44L37.75,13.27z"></path>		<path class="st2" d="M42.26,12.13l-0.74,0.15l-0.78-3.92L39.4,8.63l-0.13-0.64l3.43-0.68l0.13,0.64l-1.34,0.27L42.26,12.13z"></path>		<path class="st2" d="M46.45,9.04l0.94-2.19l0.82-0.06l-1.33,2.95l0.13,1.8l-0.76,0.06l-0.13-1.77l-1.75-2.75l0.82-0.06L46.45,9.04   z"></path>		<path class="st2" d="M57.38,9.81c-0.1,0.75-0.37,1.31-0.8,1.67c-0.43,0.36-0.99,0.5-1.68,0.4c-0.7-0.1-1.2-0.37-1.52-0.84   c-0.32-0.46-0.42-1.08-0.32-1.84c0.1-0.76,0.37-1.32,0.8-1.67c0.43-0.36,0.99-0.49,1.69-0.39c0.68,0.09,1.18,0.37,1.5,0.84   C57.38,8.45,57.48,9.06,57.38,9.81z M53.87,9.32c-0.08,0.57-0.02,1.01,0.17,1.34c0.19,0.32,0.51,0.52,0.96,0.58   c0.45,0.06,0.8-0.04,1.07-0.3s0.44-0.67,0.52-1.25c0.08-0.56,0.02-1.01-0.16-1.33c-0.19-0.32-0.5-0.51-0.95-0.58   c-0.45-0.06-0.81,0.04-1.08,0.3C54.12,8.35,53.94,8.76,53.87,9.32z"></path>		<path class="st2" d="M59.72,12.79l-0.73-0.2l1.25-4.47l2.53,0.71L62.6,9.44l-1.8-0.5l-0.39,1.4l1.69,0.47l-0.17,0.62l-1.69-0.47   L59.72,12.79z"></path>		<path class="st2" d="M67.98,10.85l1.23,0.63c0.57,0.29,0.94,0.58,1.11,0.88s0.16,0.62-0.02,0.98c-0.12,0.24-0.29,0.41-0.49,0.51   c-0.21,0.1-0.44,0.11-0.69,0.03l-0.01,0.03c0.26,0.2,0.42,0.42,0.48,0.65c0.05,0.23,0.01,0.48-0.13,0.76   c-0.19,0.37-0.47,0.6-0.84,0.67c-0.37,0.08-0.78,0-1.24-0.24l-1.49-0.76L67.98,10.85z M67.5,13.46l-0.67,1.31l0.72,0.37   c0.28,0.14,0.52,0.2,0.72,0.16c0.2-0.03,0.36-0.17,0.48-0.4c0.11-0.21,0.12-0.41,0.02-0.59c-0.09-0.18-0.29-0.34-0.59-0.5   L67.5,13.46z M67.78,12.91l0.65,0.33c0.28,0.14,0.51,0.21,0.69,0.18c0.18-0.02,0.32-0.14,0.43-0.36c0.1-0.19,0.1-0.37,0-0.53   c-0.1-0.16-0.3-0.32-0.6-0.47l-0.59-0.3L67.78,12.91z"></path>		<path class="st2" d="M72.87,19.17l0.36-1.32l-1.46-1.01l-1.11,0.8L70,17.18l4.09-2.84l0.68,0.47l-1.24,4.82L72.87,19.17z    M73.44,17.2l0.36-1.29c0.02-0.09,0.06-0.22,0.12-0.4c0.06-0.18,0.1-0.31,0.13-0.4c-0.2,0.18-0.43,0.37-0.69,0.56l-1.04,0.75   L73.44,17.2z"></path>		<path class="st2" d="M74.77,20.7l3.11-3.45l0.56,0.51l-2.67,2.97l1.46,1.32l-0.44,0.48L74.77,20.7z"></path>		<path class="st2" d="M79.95,26.01l0.67-1.19l-1.16-1.35l-1.27,0.5l-0.52-0.61l4.67-1.73l0.54,0.63l-2.4,4.36L79.95,26.01z    M80.99,24.23l0.67-1.16c0.04-0.08,0.12-0.2,0.22-0.36c0.1-0.16,0.18-0.28,0.23-0.35c-0.24,0.13-0.51,0.25-0.81,0.37l-1.19,0.47   L80.99,24.23z"></path>		<path class="st2" d="M82.48,29.57l2.59-3.19l-0.01-0.02c-0.47,0.33-0.92,0.64-1.35,0.9l-1.92,1.19l-0.36-0.59l3.95-2.45l0.57,0.91   l-2.46,3.05l0.01,0.02l3.84-0.82l0.57,0.91l-3.95,2.45l-0.39-0.62l1.95-1.21c0.2-0.12,0.45-0.28,0.78-0.46   c0.32-0.19,0.52-0.3,0.59-0.33l-0.01-0.02l-4.03,0.86L82.48,29.57z"></path>		<path class="st2" d="M89.16,32.08l0.54,1.27c0.25,0.59,0.34,1.05,0.28,1.39c-0.06,0.33-0.28,0.58-0.65,0.74   c-0.25,0.11-0.49,0.13-0.71,0.07s-0.4-0.2-0.55-0.42l-0.03,0.01c0.07,0.32,0.05,0.59-0.06,0.8c-0.11,0.21-0.3,0.38-0.59,0.5   c-0.38,0.16-0.74,0.15-1.07-0.02c-0.33-0.18-0.6-0.5-0.8-0.98l-0.65-1.55L89.16,32.08z M87.12,33.76l-1.36,0.57l0.31,0.74   c0.12,0.29,0.27,0.49,0.45,0.59c0.18,0.1,0.38,0.1,0.63,0c0.22-0.09,0.36-0.24,0.4-0.44c0.04-0.2,0-0.45-0.13-0.76L87.12,33.76z    M87.68,33.52l0.28,0.67c0.12,0.29,0.26,0.49,0.41,0.58c0.15,0.1,0.34,0.1,0.56,0c0.2-0.08,0.32-0.22,0.34-0.4   c0.03-0.18-0.02-0.43-0.16-0.75l-0.26-0.61L87.68,33.52z"></path>		<path class="st2" d="M87.54,41.59l1.13-0.78l-0.46-1.72l-1.36-0.1l-0.21-0.77l4.96,0.47l0.21,0.8l-4.05,2.89L87.54,41.59z    M89.24,40.44l1.11-0.75c0.07-0.05,0.19-0.13,0.35-0.23c0.16-0.1,0.28-0.17,0.36-0.22c-0.27,0.01-0.56,0.01-0.89-0.02l-1.28-0.09   L89.24,40.44z"></path>		<path class="st2" d="M88.48,47.78l-0.11-0.93l3.41-2.7l0-0.03l-0.2,0.04c-0.39,0.08-0.74,0.13-1.07,0.17l-2.4,0.28l-0.08-0.69   l4.62-0.54l0.11,0.92L89.36,47l0,0.02c0.05-0.01,0.22-0.04,0.53-0.09c0.3-0.05,0.54-0.08,0.71-0.1l2.42-0.28l0.08,0.69   L88.48,47.78z"></path>	</g></g></svg>