<svg xmlns="http://www.w3.org/2000/svg" xmlns:xlink="http://www.w3.org/1999/xlink" id="Layer_1" x="0px" y="0px" viewBox="0 0 20 20" style="enable-background:new 0 0 20 20;" xml:space="preserve"><style type="text/css">	.st0{fill:#323768;}</style><g>	<path class="st0" d="M9.98,15.42c-0.38-0.41-0.76-0.8-1.12-1.21C7.61,12.8,6.44,11.33,5.5,9.69C5.03,8.87,4.62,8.02,4.44,7.08  C4.15,5.62,4.47,4.26,5.3,3.06c1.23-1.78,2.95-2.62,5.11-2.49c2.67,0.15,4.88,2.29,5.21,4.95c0.14,1.15-0.15,2.2-0.62,3.22  c-0.63,1.38-1.48,2.63-2.44,3.79c-0.78,0.95-1.63,1.86-2.45,2.78C10.08,15.34,10.04,15.37,9.98,15.42z M10,3.04  c-1.7,0-3.08,1.36-3.08,3.06c0,1.71,1.37,3.09,3.07,3.09c1.69,0.01,3.08-1.38,3.08-3.08C13.07,4.42,11.7,3.04,10,3.04z"></path>	<path class="st0" d="M8.45,14.46c-0.45,0.1-0.86,0.17-1.27,0.28c-0.52,0.13-1.03,0.32-1.47,0.64c-0.18,0.13-0.34,0.29-0.47,0.46  C5,16.16,5.02,16.52,5.26,16.85c0.2,0.28,0.47,0.46,0.77,0.62c0.73,0.38,1.52,0.57,2.33,0.68c1.43,0.19,2.86,0.15,4.27-0.21  c0.55-0.14,1.09-0.32,1.56-0.65c0.18-0.13,0.36-0.29,0.49-0.47c0.23-0.3,0.23-0.66,0.02-0.98c-0.17-0.27-0.43-0.46-0.7-0.61  c-0.71-0.41-1.5-0.59-2.3-0.72c-0.04-0.01-0.08-0.02-0.12-0.02c0.13-0.29,0.23-0.35,0.52-0.3c1.06,0.16,2.1,0.41,3.03,0.97  c0.32,0.19,0.62,0.44,0.87,0.71c0.47,0.51,0.47,1.15,0.04,1.7c-0.33,0.44-0.79,0.72-1.28,0.96c-0.91,0.44-1.88,0.66-2.88,0.8  c-1.07,0.15-2.15,0.17-3.23,0.07c-1.35-0.12-2.66-0.38-3.86-1.05c-0.35-0.2-0.67-0.43-0.91-0.75c-0.44-0.56-0.42-1.19,0.03-1.73  c0.38-0.45,0.87-0.74,1.4-0.97c0.86-0.38,1.77-0.59,2.7-0.72C8.26,14.12,8.29,14.35,8.45,14.46z"></path>	<path class="st0" d="M10,16.13c0.22-0.23,0.4-0.44,0.59-0.64c0.04-0.04,0.13-0.09,0.18-0.07c0.29,0.09,0.59,0.16,0.86,0.31  c0.35,0.19,0.36,0.52,0.01,0.71c-0.28,0.15-0.6,0.26-0.91,0.32c-0.69,0.13-1.39,0.1-2.07-0.12c-0.16-0.05-0.31-0.13-0.45-0.23  c-0.27-0.19-0.28-0.47,0-0.65c0.22-0.14,0.48-0.21,0.72-0.31c0.23-0.09,0.42-0.05,0.58,0.17C9.65,15.79,9.82,15.93,10,16.13z"></path></g></svg>