<svg xmlns="http://www.w3.org/2000/svg" xmlns:xlink="http://www.w3.org/1999/xlink" id="Layer_1" x="0px" y="0px" viewBox="0 0 20 20" style="enable-background:new 0 0 20 20;" xml:space="preserve"><style type="text/css">	.st0{fill:#323768;}	.st1{fill:#2E3192;}</style><g>	<path class="st0" d="M8.39,2.73C8.07,2.6,7.79,2.46,7.5,2.36C7.43,2.34,7.27,2.43,7.22,2.52C6.94,2.96,6.71,3.42,6.41,3.85  C6.28,4.04,6.04,4.18,5.83,4.3C5.65,4.4,5.6,4.57,5.7,4.74c0.37,0.64,0.76,1.27,1.07,1.94c0.16,0.34,0.2,0.75,0.3,1.18  C7.3,7.88,7.59,7.92,7.88,7.94C8.17,7.96,8.3,8.11,8.32,8.39c0.06,0.73,0.13,1.46,0.22,2.19c0.02,0.17,0.11,0.37,0.23,0.49  c1.47,1.48,1.96,3.23,1.31,5.21c-0.64,1.94-2.05,3.04-4.07,3.37c-0.12,0.02-0.24,0.07-0.34,0.14c-0.62,0.41-1.39,0.22-1.6-0.41  c-0.13-0.39,0-0.82,0.33-1.09c0.33-0.26,0.8-0.31,1.13-0.05c0.24,0.2,0.47,0.19,0.74,0.12c1.38-0.38,2.32-1.24,2.72-2.61  c0.39-1.37,0.07-2.61-0.92-3.65c-0.1-0.1-0.26-0.18-0.41-0.19c-1.34-0.13-2.69-0.25-4.03-0.36c-0.14-0.01-0.32,0.05-0.43,0.13  c-2.27,1.62-2.01,5.06,0.48,6.37c0.11,0.06,0.22,0.11,0.31,0.16c-0.1,0.37-0.2,0.72-0.32,1.13c-0.28-0.12-0.6-0.23-0.88-0.4  c-2.71-1.65-3.18-5.42-0.96-7.69C1.95,11.1,2,11,1.91,10.79c-0.16-0.39-0.04-0.63,0.36-0.67c0.61-0.06,0.87-0.37,0.96-0.95  c0.06-0.41,0.22-0.8,0.32-1.2C3.63,7.69,3.8,7.57,4.09,7.6c0.08,0.01,0.17,0.03,0.25,0.03c0.21,0,0.61,0.02,0.62-0.03  c0.06-0.32,0.21-0.65-0.02-0.98C4.85,6.5,4.79,6.35,4.72,6.2C4.63,6.02,4.53,5.88,4.31,5.8C3.97,5.68,3.81,5.29,3.89,4.9  c0.1-0.52,0.21-1.04,0.32-1.56c0.1-0.44,0.39-0.67,0.83-0.71c0.1-0.01,0.22-0.08,0.29-0.16c0.11-0.13,0.2-0.28,0.26-0.44  c0.04-0.1,0.06-0.24,0.03-0.34C5.4,1.08,5.85,0.5,6.5,0.57c0.52,0.06,1.03,0.14,1.55,0.19c0.16,0.02,0.32-0.03,0.48-0.03  c0.11,0,0.23,0.02,0.33,0.06c0.16,0.07,0.3,0.16,0.49,0.27c0.15-0.26,0.3-0.51,0.44-0.77c0.15-0.27,0.35-0.34,0.63-0.23  c0.52,0.19,1.04,0.36,1.56,0.56c0.23,0.09,0.42,0.1,0.59-0.11c0.08-0.11,0.2-0.19,0.31-0.28c0.31-0.27,0.53-0.27,0.76,0.08  c0.13,0.2,0.27,0.21,0.48,0.18c3.17-0.49,5.94,2.03,5.74,5.24c-0.02,0.33-0.1,0.67-0.15,0.95c-0.38-0.16-0.74-0.31-1.1-0.46  c0-0.4,0.05-0.86-0.01-1.32c-0.28-2.36-2.75-3.87-4.97-3.04c-0.13,0.05-0.26,0.16-0.33,0.28c-0.68,1.18-1.36,2.36-2.03,3.54  c-0.06,0.11-0.09,0.27-0.07,0.39c0.17,0.99,0.67,1.84,1.48,2.38c1.31,0.87,2.65,1.01,4.15,0.16c0.17-0.1,0.36-0.19,0.51-0.32  c0.22-0.21,0.42-0.42,0.38-0.79c-0.03-0.34,0.35-0.77,0.68-0.87c0.4-0.13,0.73,0,1.01,0.33c0.58,0.68,0.1,1.34-0.52,1.58  c-0.11,0.04-0.22,0.11-0.31,0.2c-1.3,1.33-2.86,1.9-4.69,1.52c-1.99-0.41-3.56-1.93-3.92-4.11c-0.03-0.18-0.14-0.38-0.27-0.5  C9.17,5.14,8.61,4.67,8.04,4.2C7.82,4.01,7.76,3.82,7.92,3.56C8.07,3.31,8.21,3.05,8.39,2.73z M11.52,3.27  c-0.01-0.3-0.17-0.44-0.39-0.49c-0.16-0.04-0.33-0.11-0.47-0.2c-0.15-0.09-0.28-0.23-0.42-0.34C10.07,2.1,9.91,2.14,9.77,2.3  C9.54,2.59,9.61,2.83,9.95,2.97c0.32,0.13,0.7,0.14,0.9,0.52c0.04,0.08,0.3,0.1,0.42,0.06C11.39,3.5,11.47,3.33,11.52,3.27z   M5.75,10.75c0.27,0,0.44-0.26,0.38-0.53C6.1,10.04,6.1,9.84,6.12,9.65c0.02-0.17,0.09-0.32,0.12-0.49  c0.05-0.26-0.08-0.4-0.38-0.42C5.61,8.73,5.45,8.83,5.46,9.1c0,0.1,0.01,0.19,0.02,0.29c0.03,0.28,0.09,0.54-0.1,0.82  C5.22,10.43,5.47,10.76,5.75,10.75z M6.43,6.8C6.13,6.22,5.86,5.69,5.6,5.18C5.4,5.43,5.23,5.67,5.03,5.94  c0.1,0.19,0.21,0.43,0.34,0.66c0.03,0.06,0.1,0.12,0.15,0.13C5.8,6.76,6.08,6.78,6.43,6.8z M6.88,2.3c-0.93-0.2-0.93-0.2-1.3,0.54  c0.3,0.28,0.3,0.64,0.25,1.05C6.27,3.42,6.54,2.85,6.88,2.3z M4.96,3.03c-0.4,0.21-0.82,1.96-0.58,2.29  c0.12-0.38,0.33-0.66,0.75-0.74c0.06-0.01,0.13-0.33,0.09-0.36C4.84,3.9,4.78,3.53,4.96,3.03z M8.14,1.16  C7.5,1.1,6.91,1.01,6.31,0.98C6.09,0.97,5.94,1.14,5.98,1.41c0.66-0.3,0.95-0.2,1.33,0.44c0.09,0.15,0.34,0.16,0.44,0  C7.88,1.65,7.99,1.43,8.14,1.16z M18.72,8.06c0.33,0,0.51-0.19,0.51-0.52c0-0.31-0.21-0.5-0.54-0.49c-0.33,0-0.53,0.2-0.52,0.51  C18.17,7.89,18.37,8.06,18.72,8.06z M5.51,19.07c0-0.28-0.21-0.5-0.49-0.51c-0.27-0.01-0.51,0.21-0.52,0.49  c-0.01,0.3,0.19,0.55,0.45,0.55C5.23,19.6,5.5,19.34,5.51,19.07z M5.49,7.66c0,0.02-0.01,0.04-0.01,0.06  C5.8,7.74,6.13,7.76,6.45,7.77c0.01,0,0.02-0.1,0.02-0.11C6.13,7.66,5.81,7.66,5.49,7.66z"></path></g></svg>